G75*
G70*
%OFA0B0*%
%FSLAX24Y24*%
%IPPOS*%
%LPD*%
%AMOC8*
5,1,8,0,0,1.08239X$1,22.5*
%
%ADD10C,0.0120*%
%ADD11C,0.0040*%
D10*
X006987Y024180D02*
X006989Y024243D01*
X006995Y024305D01*
X007005Y024367D01*
X007018Y024429D01*
X007036Y024489D01*
X007057Y024548D01*
X007082Y024606D01*
X007111Y024662D01*
X007143Y024716D01*
X007178Y024768D01*
X007216Y024817D01*
X007258Y024865D01*
X007302Y024909D01*
X007350Y024951D01*
X007399Y024989D01*
X007451Y025024D01*
X007505Y025056D01*
X007561Y025085D01*
X007619Y025110D01*
X007678Y025131D01*
X007738Y025149D01*
X007800Y025162D01*
X007862Y025172D01*
X007924Y025178D01*
X007987Y025180D01*
X008050Y025178D01*
X008112Y025172D01*
X008174Y025162D01*
X008236Y025149D01*
X008296Y025131D01*
X008355Y025110D01*
X008413Y025085D01*
X008469Y025056D01*
X008523Y025024D01*
X008575Y024989D01*
X008624Y024951D01*
X008672Y024909D01*
X008716Y024865D01*
X008758Y024817D01*
X008796Y024768D01*
X008831Y024716D01*
X008863Y024662D01*
X008892Y024606D01*
X008917Y024548D01*
X008938Y024489D01*
X008956Y024429D01*
X008969Y024367D01*
X008979Y024305D01*
X008985Y024243D01*
X008987Y024180D01*
X008985Y024117D01*
X008979Y024055D01*
X008969Y023993D01*
X008956Y023931D01*
X008938Y023871D01*
X008917Y023812D01*
X008892Y023754D01*
X008863Y023698D01*
X008831Y023644D01*
X008796Y023592D01*
X008758Y023543D01*
X008716Y023495D01*
X008672Y023451D01*
X008624Y023409D01*
X008575Y023371D01*
X008523Y023336D01*
X008469Y023304D01*
X008413Y023275D01*
X008355Y023250D01*
X008296Y023229D01*
X008236Y023211D01*
X008174Y023198D01*
X008112Y023188D01*
X008050Y023182D01*
X007987Y023180D01*
X007924Y023182D01*
X007862Y023188D01*
X007800Y023198D01*
X007738Y023211D01*
X007678Y023229D01*
X007619Y023250D01*
X007561Y023275D01*
X007505Y023304D01*
X007451Y023336D01*
X007399Y023371D01*
X007350Y023409D01*
X007302Y023451D01*
X007258Y023495D01*
X007216Y023543D01*
X007178Y023592D01*
X007143Y023644D01*
X007111Y023698D01*
X007082Y023754D01*
X007057Y023812D01*
X007036Y023871D01*
X007018Y023931D01*
X007005Y023993D01*
X006995Y024055D01*
X006989Y024117D01*
X006987Y024180D01*
D11*
X007620Y023700D02*
X007697Y023700D01*
X007697Y023777D01*
X007620Y023777D01*
X007620Y023700D01*
M02*
