G75*
G70*
%OFA0B0*%
%FSLAX24Y24*%
%IPPOS*%
%LPD*%
%AMOC8*
5,1,8,0,0,1.08239X$1,22.5*
%
%ADD10C,0.0000*%
%ADD11C,0.0160*%
%ADD12C,0.0040*%
%ADD13C,0.0060*%
%ADD14C,0.0030*%
%ADD15C,0.0050*%
%ADD16C,0.0120*%
%ADD17C,0.0080*%
%ADD18C,0.0100*%
%ADD19C,0.0240*%
%ADD20C,0.0010*%
D10*
X000487Y027680D02*
X030487Y027680D01*
D11*
X030487Y000180D02*
X000487Y000180D01*
X000487Y027680D01*
X030487Y027680D02*
X030487Y000180D01*
D12*
X022573Y000700D02*
X022420Y000700D01*
X022497Y000700D02*
X022497Y001160D01*
X022420Y001160D01*
X022267Y000930D02*
X022267Y000700D01*
X022036Y000700D01*
X021960Y000777D01*
X022036Y000853D01*
X022267Y000853D01*
X022267Y000930D02*
X022190Y001007D01*
X022036Y001007D01*
X021729Y001007D02*
X021729Y000700D01*
X021653Y000700D02*
X021806Y000700D01*
X021729Y001007D02*
X021653Y001007D01*
X021499Y001007D02*
X021422Y001007D01*
X021269Y000853D01*
X021269Y000700D02*
X021269Y001007D01*
X021116Y000930D02*
X021116Y000853D01*
X020809Y000853D01*
X020809Y000777D02*
X020809Y000930D01*
X020885Y001007D01*
X021039Y001007D01*
X021116Y000930D01*
X021039Y000700D02*
X020885Y000700D01*
X020809Y000777D01*
X020655Y000777D02*
X020578Y000700D01*
X020425Y000700D01*
X020348Y000777D01*
X020425Y000930D02*
X020578Y000930D01*
X020655Y000853D01*
X020655Y000777D01*
X020425Y000930D02*
X020348Y001007D01*
X020348Y001084D01*
X020425Y001160D01*
X020578Y001160D01*
X020655Y001084D01*
X019734Y001084D02*
X019658Y001160D01*
X019504Y001160D01*
X019427Y001084D01*
X019427Y001007D01*
X019504Y000930D01*
X019658Y000930D01*
X019734Y000853D01*
X019734Y000777D01*
X019658Y000700D01*
X019504Y000700D01*
X019427Y000777D01*
X019274Y000930D02*
X019197Y000853D01*
X018967Y000853D01*
X018967Y000700D02*
X018967Y001160D01*
X019197Y001160D01*
X019274Y001084D01*
X019274Y000930D01*
X018814Y000930D02*
X018814Y000777D01*
X018737Y000700D01*
X018583Y000700D01*
X018507Y000777D01*
X018507Y001084D01*
X018583Y001160D01*
X018737Y001160D01*
X018814Y001084D01*
X018814Y000930D02*
X018660Y000930D01*
X017314Y001200D02*
X017007Y001200D01*
X017160Y001200D02*
X017160Y001660D01*
X017007Y001507D01*
X017007Y003200D02*
X017314Y003200D01*
X017160Y003200D02*
X017160Y003660D01*
X017007Y003507D01*
X017506Y004200D02*
X017506Y004277D01*
X017967Y004277D01*
X017967Y004353D02*
X017967Y004200D01*
X017890Y004507D02*
X017736Y004507D01*
X017660Y004584D01*
X017660Y004737D01*
X017736Y004814D01*
X017890Y004814D01*
X017967Y004737D01*
X017967Y004584D01*
X017890Y004507D01*
X017890Y004967D02*
X017736Y004967D01*
X017660Y005044D01*
X017660Y005274D01*
X017813Y005428D02*
X017660Y005658D01*
X017813Y005428D02*
X017967Y005658D01*
X017967Y005428D02*
X017506Y005428D01*
X017967Y005274D02*
X017967Y005044D01*
X017890Y004967D01*
X018660Y005044D02*
X018736Y004967D01*
X018890Y004967D01*
X018967Y005044D01*
X018967Y005198D01*
X018890Y005274D01*
X018736Y005274D01*
X018660Y005198D01*
X018660Y005044D01*
X018660Y004814D02*
X018967Y004507D01*
X018967Y004353D02*
X018890Y004277D01*
X018583Y004277D01*
X018660Y004200D02*
X018660Y004353D01*
X018660Y004507D02*
X018967Y004814D01*
X019506Y004967D02*
X019506Y004660D01*
X019736Y004660D01*
X019660Y004814D01*
X019660Y004891D01*
X019736Y004967D01*
X019890Y004967D01*
X019967Y004891D01*
X019967Y004737D01*
X019890Y004660D01*
X019736Y004507D02*
X019736Y004200D01*
X019583Y004353D02*
X019890Y004353D01*
X020506Y004277D02*
X020583Y004200D01*
X020890Y004200D01*
X020967Y004277D01*
X020967Y004430D01*
X020890Y004507D01*
X020736Y004507D01*
X020736Y004353D01*
X020583Y004507D02*
X020506Y004430D01*
X020506Y004277D01*
X020506Y004660D02*
X020967Y004967D01*
X020506Y004967D01*
X020506Y005121D02*
X020506Y005351D01*
X020583Y005428D01*
X020890Y005428D01*
X020967Y005351D01*
X020967Y005121D01*
X020506Y005121D01*
X019967Y005274D02*
X019660Y005428D01*
X019660Y005121D02*
X019967Y005274D01*
X020506Y004660D02*
X020967Y004660D01*
X019967Y003274D02*
X019660Y003428D01*
X019660Y003121D02*
X019967Y003274D01*
X019890Y002967D02*
X019967Y002891D01*
X019967Y002737D01*
X019890Y002660D01*
X019736Y002660D02*
X019660Y002814D01*
X019660Y002891D01*
X019736Y002967D01*
X019890Y002967D01*
X019736Y002660D02*
X019506Y002660D01*
X019506Y002967D01*
X019736Y002507D02*
X019736Y002200D01*
X019583Y002353D02*
X019890Y002353D01*
X020660Y002353D02*
X020813Y002200D01*
X020660Y002200D02*
X020967Y002200D01*
X020660Y002353D02*
X020660Y002430D01*
X020660Y002584D02*
X020967Y002891D01*
X020967Y003044D02*
X020967Y003198D01*
X020967Y003121D02*
X020660Y003121D01*
X020660Y003044D01*
X020660Y002891D02*
X020967Y002584D01*
X021583Y002277D02*
X021890Y002277D01*
X021967Y002353D01*
X021967Y002507D02*
X021660Y002814D01*
X021736Y002967D02*
X021890Y002967D01*
X021967Y003044D01*
X021967Y003198D01*
X021890Y003274D01*
X021736Y003274D01*
X021660Y003198D01*
X021660Y003044D01*
X021736Y002967D01*
X021967Y002814D02*
X021660Y002507D01*
X021660Y002353D02*
X021660Y002200D01*
X021729Y001237D02*
X021729Y001160D01*
X020506Y003121D02*
X020430Y003121D01*
X015967Y006103D02*
X015890Y006027D01*
X015583Y006027D01*
X015660Y005950D02*
X015660Y006103D01*
X015660Y006257D02*
X015967Y006564D01*
X015910Y006700D02*
X015910Y007160D01*
X015757Y007007D01*
X015736Y007024D02*
X015660Y006948D01*
X015660Y006794D01*
X015736Y006717D01*
X015890Y006717D01*
X015967Y006794D01*
X015967Y006948D01*
X015890Y007024D01*
X015736Y007024D01*
X015757Y006700D02*
X016064Y006700D01*
X015660Y006564D02*
X015967Y006257D01*
X014467Y006334D02*
X014160Y006641D01*
X014217Y006700D02*
X013756Y006700D01*
X013756Y006930D01*
X013833Y007007D01*
X013986Y007007D01*
X014063Y006930D01*
X014063Y006700D01*
X014160Y006794D02*
X014160Y006871D01*
X014467Y006871D01*
X014467Y006794D02*
X014467Y006948D01*
X014217Y007007D02*
X014063Y006853D01*
X014006Y006871D02*
X013930Y006871D01*
X013756Y007160D02*
X014217Y007467D01*
X014217Y007621D02*
X014217Y007851D01*
X014140Y007928D01*
X014063Y007851D01*
X014063Y007698D01*
X013986Y007621D01*
X013910Y007698D01*
X013910Y007928D01*
X013986Y008081D02*
X013910Y008158D01*
X013910Y008311D01*
X013986Y008388D01*
X014063Y008388D01*
X014063Y008081D01*
X014140Y008081D02*
X013986Y008081D01*
X014140Y008081D02*
X014217Y008158D01*
X014217Y008311D01*
X014217Y008542D02*
X014217Y008695D01*
X014217Y008618D02*
X013756Y008618D01*
X013756Y008542D01*
X013986Y008848D02*
X013910Y008925D01*
X013910Y009079D01*
X013986Y009155D01*
X014063Y009155D01*
X014063Y008848D01*
X014140Y008848D02*
X013986Y008848D01*
X014140Y008848D02*
X014217Y008925D01*
X014217Y009079D01*
X014140Y009309D02*
X013986Y009309D01*
X013910Y009386D01*
X013910Y009616D01*
X013910Y009769D02*
X013910Y009923D01*
X013833Y009846D02*
X014140Y009846D01*
X014217Y009923D01*
X014217Y009616D02*
X014217Y009386D01*
X014140Y009309D01*
X013217Y009232D02*
X013217Y009002D01*
X013140Y008925D01*
X013063Y009002D01*
X013063Y009232D01*
X012986Y009232D02*
X013217Y009232D01*
X013140Y009386D02*
X013217Y009462D01*
X013217Y009693D01*
X012756Y009693D01*
X012910Y009693D02*
X012910Y009462D01*
X012986Y009386D01*
X013140Y009386D01*
X012986Y009232D02*
X012910Y009155D01*
X012910Y009002D01*
X012986Y008772D02*
X013063Y008772D01*
X013063Y008465D01*
X012986Y008465D02*
X012910Y008542D01*
X012910Y008695D01*
X012986Y008772D01*
X013217Y008695D02*
X013217Y008542D01*
X013140Y008465D01*
X012986Y008465D01*
X012910Y008311D02*
X012910Y008235D01*
X013063Y008081D01*
X012910Y008081D02*
X013217Y008081D01*
X013140Y007928D02*
X013217Y007851D01*
X013217Y007698D01*
X013140Y007621D01*
X012833Y007621D01*
X012756Y007698D01*
X012756Y007851D01*
X012833Y007928D01*
X012833Y007467D02*
X012756Y007391D01*
X012756Y007237D01*
X012833Y007160D01*
X012910Y007160D01*
X012986Y007237D01*
X012986Y007391D01*
X013063Y007467D01*
X013140Y007467D01*
X013217Y007391D01*
X013217Y007237D01*
X013140Y007160D01*
X013140Y007007D02*
X012833Y007007D01*
X012756Y006930D01*
X012756Y006777D01*
X012833Y006700D01*
X013140Y006700D01*
X013217Y006777D01*
X013217Y006930D01*
X013140Y007007D01*
X012660Y006660D02*
X012507Y006507D01*
X012660Y006660D02*
X012660Y006200D01*
X012507Y006200D02*
X012814Y006200D01*
X013756Y007467D02*
X014217Y007160D01*
X014467Y006641D02*
X014160Y006334D01*
X014160Y006180D02*
X014160Y006103D01*
X014313Y005950D01*
X014160Y005950D02*
X014467Y005950D01*
X014479Y004487D02*
X014479Y004410D01*
X014479Y004257D02*
X014479Y003950D01*
X014403Y003950D02*
X014556Y003950D01*
X014710Y004027D02*
X014786Y004103D01*
X015017Y004103D01*
X015017Y004180D02*
X015017Y003950D01*
X014786Y003950D01*
X014710Y004027D01*
X014786Y004257D02*
X014940Y004257D01*
X015017Y004180D01*
X015170Y003950D02*
X015323Y003950D01*
X015247Y003950D02*
X015247Y004410D01*
X015170Y004410D01*
X014479Y004257D02*
X014403Y004257D01*
X014249Y004257D02*
X014172Y004257D01*
X014019Y004103D01*
X014019Y003950D02*
X014019Y004257D01*
X013866Y004180D02*
X013866Y004103D01*
X013559Y004103D01*
X013559Y004027D02*
X013559Y004180D01*
X013635Y004257D01*
X013789Y004257D01*
X013866Y004180D01*
X013789Y003950D02*
X013635Y003950D01*
X013559Y004027D01*
X013405Y004027D02*
X013328Y003950D01*
X013175Y003950D01*
X013098Y004027D01*
X013175Y004180D02*
X013328Y004180D01*
X013405Y004103D01*
X013405Y004027D01*
X013175Y004180D02*
X013098Y004257D01*
X013098Y004334D01*
X013175Y004410D01*
X013328Y004410D01*
X013405Y004334D01*
X013467Y003448D02*
X013467Y003294D01*
X013467Y003371D02*
X013160Y003371D01*
X013160Y003294D01*
X013160Y003141D02*
X013467Y002834D01*
X013160Y002834D02*
X013467Y003141D01*
X013006Y003371D02*
X012930Y003371D01*
X012467Y003524D02*
X012160Y003678D01*
X012254Y003950D02*
X012408Y003950D01*
X012484Y004027D01*
X012484Y004410D01*
X012177Y004410D02*
X012177Y004027D01*
X012254Y003950D01*
X012024Y004180D02*
X011947Y004103D01*
X011717Y004103D01*
X011717Y003950D02*
X011717Y004410D01*
X011947Y004410D01*
X012024Y004334D01*
X012024Y004180D01*
X011564Y004027D02*
X011487Y003950D01*
X011333Y003950D01*
X011257Y004027D01*
X011257Y004334D01*
X011333Y004410D01*
X011487Y004410D01*
X011564Y004334D01*
X012160Y003371D02*
X012467Y003524D01*
X012390Y003217D02*
X012236Y003217D01*
X012160Y003141D01*
X012160Y003064D01*
X012236Y002910D01*
X012006Y002910D01*
X012006Y003217D01*
X012390Y003217D02*
X012467Y003141D01*
X012467Y002987D01*
X012390Y002910D01*
X012236Y002757D02*
X012236Y002450D01*
X012083Y002603D02*
X012390Y002603D01*
X013160Y002603D02*
X013160Y002680D01*
X013160Y002603D02*
X013313Y002450D01*
X013160Y002450D02*
X013467Y002450D01*
X014083Y002527D02*
X014390Y002527D01*
X014467Y002603D01*
X014467Y002757D02*
X014160Y003064D01*
X014236Y003217D02*
X014390Y003217D01*
X014467Y003294D01*
X014467Y003448D01*
X014390Y003524D01*
X014236Y003524D01*
X014160Y003448D01*
X014160Y003294D01*
X014236Y003217D01*
X014467Y003064D02*
X014160Y002757D01*
X014160Y002603D02*
X014160Y002450D01*
X013658Y001160D02*
X013504Y001160D01*
X013427Y001084D01*
X013427Y001007D01*
X013504Y000930D01*
X013658Y000930D01*
X013734Y000853D01*
X013734Y000777D01*
X013658Y000700D01*
X013504Y000700D01*
X013427Y000777D01*
X013274Y000930D02*
X013197Y000853D01*
X012967Y000853D01*
X012967Y000700D02*
X012967Y001160D01*
X013197Y001160D01*
X013274Y001084D01*
X013274Y000930D01*
X013658Y001160D02*
X013734Y001084D01*
X012814Y001084D02*
X012737Y001160D01*
X012583Y001160D01*
X012507Y001084D01*
X012507Y000777D01*
X012583Y000700D01*
X012737Y000700D01*
X012814Y000777D01*
X012814Y000930D01*
X012660Y000930D01*
X012910Y009846D02*
X013140Y009846D01*
X013217Y009923D01*
X013217Y010153D01*
X013293Y010153D02*
X013370Y010076D01*
X013370Y009999D01*
X013293Y010153D02*
X012910Y010153D01*
X003467Y017277D02*
X003467Y017430D01*
X003390Y017507D01*
X003083Y017507D01*
X003006Y017430D01*
X003006Y017277D01*
X003083Y017200D01*
X003390Y017200D01*
X003467Y017277D01*
X003390Y017660D02*
X003467Y017737D01*
X003467Y017891D01*
X003390Y017967D01*
X003313Y017967D01*
X003236Y017891D01*
X003236Y017737D01*
X003160Y017660D01*
X003083Y017660D01*
X003006Y017737D01*
X003006Y017891D01*
X003083Y017967D01*
X003083Y018121D02*
X003390Y018121D01*
X003467Y018198D01*
X003467Y018351D01*
X003390Y018428D01*
X003083Y018428D02*
X003006Y018351D01*
X003006Y018198D01*
X003083Y018121D01*
X002081Y018200D02*
X002081Y018430D01*
X002004Y018507D01*
X001774Y018507D01*
X001774Y018200D01*
X001621Y018200D02*
X001467Y018200D01*
X001544Y018200D02*
X001544Y018507D01*
X001467Y018507D01*
X001544Y018660D02*
X001544Y018737D01*
X001314Y018660D02*
X001314Y018353D01*
X001160Y018200D01*
X001007Y018353D01*
X001007Y018660D01*
X001044Y019200D02*
X000967Y019277D01*
X001044Y019353D01*
X001274Y019353D01*
X001274Y019430D02*
X001274Y019200D01*
X001044Y019200D01*
X000814Y019353D02*
X000814Y019660D01*
X001044Y019507D02*
X001197Y019507D01*
X001274Y019430D01*
X001427Y019430D02*
X001504Y019507D01*
X001734Y019507D01*
X001734Y019660D02*
X001734Y019200D01*
X001504Y019200D01*
X001427Y019277D01*
X001427Y019430D01*
X001888Y019047D02*
X001965Y019047D01*
X002041Y019123D01*
X002041Y019507D01*
X002041Y019660D02*
X002041Y019737D01*
X000814Y019353D02*
X000660Y019200D01*
X000507Y019353D01*
X000507Y019660D01*
X000583Y017660D02*
X000507Y017584D01*
X000507Y017277D01*
X000583Y017200D01*
X000737Y017200D01*
X000814Y017277D01*
X000814Y017430D01*
X000660Y017430D01*
X000814Y017584D02*
X000737Y017660D01*
X000583Y017660D01*
X000967Y017660D02*
X000967Y017200D01*
X001274Y017200D02*
X001274Y017660D01*
X001427Y017660D02*
X001658Y017660D01*
X001734Y017584D01*
X001734Y017277D01*
X001658Y017200D01*
X001427Y017200D01*
X001427Y017660D01*
X000967Y017660D02*
X001274Y017200D01*
X001197Y016660D02*
X000967Y016660D01*
X000967Y016200D01*
X001197Y016200D01*
X001274Y016277D01*
X001274Y016584D01*
X001197Y016660D01*
X001427Y016660D02*
X001427Y016584D01*
X001581Y016430D01*
X001581Y016200D01*
X001581Y016430D02*
X001734Y016584D01*
X001734Y016660D01*
X000814Y016584D02*
X000814Y016430D01*
X000737Y016353D01*
X000507Y016353D01*
X000507Y016200D02*
X000507Y016660D01*
X000737Y016660D01*
X000814Y016584D01*
X000660Y016353D02*
X000814Y016200D01*
X003007Y016007D02*
X003160Y016160D01*
X003160Y015700D01*
X003007Y015700D02*
X003314Y015700D01*
X001390Y011428D02*
X001083Y011428D01*
X001006Y011351D01*
X001006Y011121D01*
X001467Y011121D01*
X001467Y011351D01*
X001390Y011428D01*
X001467Y010967D02*
X001006Y010967D01*
X001006Y010660D02*
X001467Y010967D01*
X001467Y010660D02*
X001006Y010660D01*
X001083Y010507D02*
X001006Y010430D01*
X001006Y010277D01*
X001083Y010200D01*
X001390Y010200D01*
X001467Y010277D01*
X001467Y010430D01*
X001390Y010507D01*
X001236Y010507D01*
X001236Y010353D01*
X001313Y009967D02*
X001006Y009967D01*
X001006Y009660D02*
X001313Y009660D01*
X001467Y009814D01*
X001313Y009967D01*
X001236Y009507D02*
X001236Y009200D01*
X001083Y009353D02*
X001390Y009353D01*
X007507Y024200D02*
X007583Y024200D01*
X007583Y024277D01*
X007507Y024277D01*
X007507Y024200D01*
X009677Y026647D02*
X009677Y027107D01*
X009908Y027107D01*
X009984Y027030D01*
X009984Y026877D01*
X009908Y026800D01*
X009677Y026800D01*
X009524Y026877D02*
X009524Y027030D01*
X009447Y027107D01*
X009294Y027107D01*
X009217Y027030D01*
X009217Y026877D01*
X009294Y026800D01*
X009447Y026800D01*
X009524Y026877D01*
X009064Y026877D02*
X008987Y026800D01*
X008833Y026800D01*
X008757Y026877D01*
X008757Y027184D01*
X008833Y027260D01*
X008987Y027260D01*
X009064Y027184D01*
X010138Y027107D02*
X010138Y026877D01*
X010215Y026800D01*
X010445Y026800D01*
X010445Y026723D02*
X010368Y026647D01*
X010291Y026647D01*
X010445Y026723D02*
X010445Y027107D01*
X010598Y027107D02*
X010598Y026800D01*
X010598Y026953D02*
X010752Y027107D01*
X010828Y027107D01*
X010982Y027107D02*
X011059Y027107D01*
X011059Y026800D01*
X011135Y026800D02*
X010982Y026800D01*
X011289Y026877D02*
X011366Y026800D01*
X011596Y026800D01*
X011596Y026723D02*
X011596Y027107D01*
X011366Y027107D01*
X011289Y027030D01*
X011289Y026877D01*
X011442Y026647D02*
X011519Y026647D01*
X011596Y026723D01*
X011749Y026800D02*
X011749Y027260D01*
X011826Y027107D02*
X011979Y027107D01*
X012056Y027030D01*
X012056Y026800D01*
X012286Y026877D02*
X012286Y027184D01*
X012210Y027107D02*
X012363Y027107D01*
X012286Y026877D02*
X012363Y026800D01*
X011826Y027107D02*
X011749Y027030D01*
X011059Y027260D02*
X011059Y027337D01*
X012977Y027184D02*
X012977Y026877D01*
X013054Y026800D01*
X013207Y026800D01*
X013284Y026877D01*
X013284Y027030D01*
X013130Y027030D01*
X012977Y027184D02*
X013054Y027260D01*
X013207Y027260D01*
X013284Y027184D01*
X013437Y027260D02*
X013514Y027260D01*
X013514Y026800D01*
X013437Y026800D02*
X013591Y026800D01*
X013744Y026877D02*
X013744Y027030D01*
X013821Y027107D01*
X013974Y027107D01*
X014051Y027030D01*
X014051Y026953D01*
X013744Y026953D01*
X013744Y026877D02*
X013821Y026800D01*
X013974Y026800D01*
X014205Y026800D02*
X014205Y027107D01*
X014435Y027107D01*
X014512Y027030D01*
X014512Y026800D01*
X015125Y026877D02*
X015202Y026800D01*
X015356Y026800D01*
X015432Y026877D01*
X015432Y027184D01*
X015356Y027260D01*
X015202Y027260D01*
X015125Y027184D01*
X015125Y026877D01*
X015586Y027107D02*
X015739Y026800D01*
X015893Y027107D01*
X016046Y027030D02*
X016123Y027107D01*
X016276Y027107D01*
X016353Y027030D01*
X016353Y026953D01*
X016046Y026953D01*
X016046Y026877D02*
X016046Y027030D01*
X016046Y026877D02*
X016123Y026800D01*
X016276Y026800D01*
X016507Y026800D02*
X016507Y027107D01*
X016660Y027107D02*
X016507Y026953D01*
X016660Y027107D02*
X016737Y027107D01*
X016890Y027107D02*
X017120Y027107D01*
X017197Y027030D01*
X017197Y026877D01*
X017120Y026800D01*
X016890Y026800D01*
X016890Y027260D01*
X017351Y027107D02*
X017351Y026877D01*
X017427Y026800D01*
X017658Y026800D01*
X017658Y026723D02*
X017581Y026647D01*
X017504Y026647D01*
X017658Y026723D02*
X017658Y027107D01*
X018271Y027184D02*
X018348Y027260D01*
X018502Y027260D01*
X018578Y027184D01*
X018578Y027107D01*
X018271Y026800D01*
X018578Y026800D01*
X018732Y026877D02*
X018732Y027184D01*
X018809Y027260D01*
X018962Y027260D01*
X019039Y027184D01*
X018732Y026877D01*
X018809Y026800D01*
X018962Y026800D01*
X019039Y026877D01*
X019039Y027184D01*
X019192Y027107D02*
X019346Y027260D01*
X019346Y026800D01*
X019499Y026800D02*
X019192Y026800D01*
X019653Y027030D02*
X019960Y027030D01*
X020113Y027030D02*
X020420Y027030D01*
X020573Y027184D02*
X020650Y027260D01*
X020804Y027260D01*
X020880Y027184D01*
X020880Y027107D01*
X020573Y026800D01*
X020880Y026800D01*
X021034Y026877D02*
X021341Y027184D01*
X021341Y026877D01*
X021264Y026800D01*
X021111Y026800D01*
X021034Y026877D01*
X021034Y027184D01*
X021111Y027260D01*
X021264Y027260D01*
X021341Y027184D01*
X021494Y027107D02*
X021648Y027260D01*
X021648Y026800D01*
X021801Y026800D02*
X021494Y026800D01*
X021955Y026877D02*
X022031Y026800D01*
X022185Y026800D01*
X022262Y026877D01*
X022262Y026953D01*
X022185Y027030D01*
X021955Y027030D01*
X021955Y026877D01*
X021955Y027030D02*
X022108Y027184D01*
X022262Y027260D01*
X019883Y027260D02*
X019653Y027030D01*
X019883Y026800D02*
X019883Y027260D01*
X025257Y026334D02*
X025257Y026027D01*
X025333Y025950D01*
X025487Y025950D01*
X025564Y026027D01*
X025564Y026180D01*
X025410Y026180D01*
X025257Y026334D02*
X025333Y026410D01*
X025487Y026410D01*
X025564Y026334D01*
X025717Y026410D02*
X026024Y025950D01*
X026024Y026410D01*
X026177Y026410D02*
X026408Y026410D01*
X026484Y026334D01*
X026484Y026027D01*
X026408Y025950D01*
X026177Y025950D01*
X026177Y026410D01*
X025717Y026410D02*
X025717Y025950D01*
X029583Y018428D02*
X029506Y018351D01*
X029506Y018121D01*
X029967Y018121D01*
X029967Y018351D01*
X029890Y018428D01*
X029583Y018428D01*
X029506Y017967D02*
X029967Y017967D01*
X029506Y017660D01*
X029967Y017660D01*
X029890Y017507D02*
X029736Y017507D01*
X029736Y017353D01*
X029583Y017200D02*
X029890Y017200D01*
X029967Y017277D01*
X029967Y017430D01*
X029890Y017507D01*
X029583Y017507D02*
X029506Y017430D01*
X029506Y017277D01*
X029583Y017200D01*
X001217Y024700D02*
X001217Y025007D01*
X001217Y024853D02*
X000756Y024853D01*
X000910Y024700D01*
X000833Y025160D02*
X000756Y025237D01*
X000756Y025391D01*
X000833Y025467D01*
X001140Y025160D01*
X001217Y025237D01*
X001217Y025391D01*
X001140Y025467D01*
X000833Y025467D01*
X000910Y025621D02*
X000910Y025698D01*
X000986Y025774D01*
X000910Y025851D01*
X000986Y025928D01*
X001217Y025928D01*
X001217Y026081D02*
X000756Y026081D01*
X000910Y026158D02*
X000910Y026311D01*
X000986Y026388D01*
X001217Y026388D01*
X001217Y026542D02*
X001217Y026848D01*
X001217Y026542D02*
X000910Y026848D01*
X000910Y026542D01*
X000910Y026158D02*
X000986Y026081D01*
X000986Y025774D02*
X001217Y025774D01*
X001217Y025621D02*
X000910Y025621D01*
X000833Y025160D02*
X001140Y025160D01*
X001217Y027462D02*
X001217Y027616D01*
X001217Y027539D02*
X000756Y027539D01*
X000756Y027462D02*
X000756Y027616D01*
X000910Y027769D02*
X000910Y027999D01*
X000986Y028076D01*
X001217Y028076D01*
X001217Y027769D02*
X000910Y027769D01*
D13*
X002767Y027244D02*
X002767Y026817D01*
X002873Y026710D01*
X003087Y026710D01*
X003194Y026817D01*
X003194Y027030D01*
X002980Y027030D01*
X002767Y027244D02*
X002873Y027351D01*
X003087Y027351D01*
X003194Y027244D01*
X003411Y027351D02*
X003731Y027351D01*
X003838Y027244D01*
X003838Y027030D01*
X003731Y026924D01*
X003411Y026924D01*
X003411Y026710D02*
X003411Y027351D01*
X004056Y027244D02*
X004056Y027137D01*
X004163Y027030D01*
X004376Y027030D01*
X004483Y026924D01*
X004483Y026817D01*
X004376Y026710D01*
X004163Y026710D01*
X004056Y026817D01*
X004056Y027244D02*
X004163Y027351D01*
X004376Y027351D01*
X004483Y027244D01*
X004700Y027351D02*
X005021Y027351D01*
X005127Y027244D01*
X005127Y026817D01*
X005021Y026710D01*
X004700Y026710D01*
X004700Y027351D01*
X005345Y027244D02*
X005345Y026817D01*
X005452Y026710D01*
X005665Y026710D01*
X005772Y026817D01*
X005772Y027244D01*
X005665Y027351D01*
X005452Y027351D01*
X005345Y027244D01*
X004948Y026351D02*
X004735Y026351D01*
X004628Y026244D01*
X004628Y025817D01*
X005055Y026244D01*
X005055Y025817D01*
X004948Y025710D01*
X004735Y025710D01*
X004628Y025817D01*
X004413Y025817D02*
X004413Y025710D01*
X004306Y025710D01*
X004306Y025817D01*
X004413Y025817D01*
X004088Y025710D02*
X003661Y025710D01*
X004088Y026137D01*
X004088Y026244D01*
X003981Y026351D01*
X003768Y026351D01*
X003661Y026244D01*
X003444Y026137D02*
X003230Y025710D01*
X003017Y026137D01*
X004948Y026351D02*
X005055Y026244D01*
X010737Y022680D02*
X010739Y022724D01*
X010745Y022768D01*
X010755Y022811D01*
X010768Y022853D01*
X010785Y022894D01*
X010806Y022933D01*
X010830Y022970D01*
X010857Y023005D01*
X010887Y023037D01*
X010920Y023067D01*
X010956Y023093D01*
X010993Y023117D01*
X011033Y023136D01*
X011074Y023153D01*
X011117Y023165D01*
X011160Y023174D01*
X011204Y023179D01*
X011248Y023180D01*
X011292Y023177D01*
X011336Y023170D01*
X011379Y023159D01*
X011421Y023145D01*
X011461Y023127D01*
X011500Y023105D01*
X011536Y023081D01*
X011570Y023053D01*
X011602Y023022D01*
X011631Y022988D01*
X011657Y022952D01*
X011679Y022914D01*
X011698Y022874D01*
X011713Y022832D01*
X011725Y022790D01*
X011733Y022746D01*
X011737Y022702D01*
X011737Y022658D01*
X011733Y022614D01*
X011725Y022570D01*
X011713Y022528D01*
X011698Y022486D01*
X011679Y022446D01*
X011657Y022408D01*
X011631Y022372D01*
X011602Y022338D01*
X011570Y022307D01*
X011536Y022279D01*
X011500Y022255D01*
X011461Y022233D01*
X011421Y022215D01*
X011379Y022201D01*
X011336Y022190D01*
X011292Y022183D01*
X011248Y022180D01*
X011204Y022181D01*
X011160Y022186D01*
X011117Y022195D01*
X011074Y022207D01*
X011033Y022224D01*
X010993Y022243D01*
X010956Y022267D01*
X010920Y022293D01*
X010887Y022323D01*
X010857Y022355D01*
X010830Y022390D01*
X010806Y022427D01*
X010785Y022466D01*
X010768Y022507D01*
X010755Y022549D01*
X010745Y022592D01*
X010739Y022636D01*
X010737Y022680D01*
X011987Y022680D02*
X011989Y022724D01*
X011995Y022768D01*
X012005Y022811D01*
X012018Y022853D01*
X012035Y022894D01*
X012056Y022933D01*
X012080Y022970D01*
X012107Y023005D01*
X012137Y023037D01*
X012170Y023067D01*
X012206Y023093D01*
X012243Y023117D01*
X012283Y023136D01*
X012324Y023153D01*
X012367Y023165D01*
X012410Y023174D01*
X012454Y023179D01*
X012498Y023180D01*
X012542Y023177D01*
X012586Y023170D01*
X012629Y023159D01*
X012671Y023145D01*
X012711Y023127D01*
X012750Y023105D01*
X012786Y023081D01*
X012820Y023053D01*
X012852Y023022D01*
X012881Y022988D01*
X012907Y022952D01*
X012929Y022914D01*
X012948Y022874D01*
X012963Y022832D01*
X012975Y022790D01*
X012983Y022746D01*
X012987Y022702D01*
X012987Y022658D01*
X012983Y022614D01*
X012975Y022570D01*
X012963Y022528D01*
X012948Y022486D01*
X012929Y022446D01*
X012907Y022408D01*
X012881Y022372D01*
X012852Y022338D01*
X012820Y022307D01*
X012786Y022279D01*
X012750Y022255D01*
X012711Y022233D01*
X012671Y022215D01*
X012629Y022201D01*
X012586Y022190D01*
X012542Y022183D01*
X012498Y022180D01*
X012454Y022181D01*
X012410Y022186D01*
X012367Y022195D01*
X012324Y022207D01*
X012283Y022224D01*
X012243Y022243D01*
X012206Y022267D01*
X012170Y022293D01*
X012137Y022323D01*
X012107Y022355D01*
X012080Y022390D01*
X012056Y022427D01*
X012035Y022466D01*
X012018Y022507D01*
X012005Y022549D01*
X011995Y022592D01*
X011989Y022636D01*
X011987Y022680D01*
X010987Y019180D02*
X010989Y019224D01*
X010995Y019268D01*
X011005Y019311D01*
X011018Y019353D01*
X011035Y019394D01*
X011056Y019433D01*
X011080Y019470D01*
X011107Y019505D01*
X011137Y019537D01*
X011170Y019567D01*
X011206Y019593D01*
X011243Y019617D01*
X011283Y019636D01*
X011324Y019653D01*
X011367Y019665D01*
X011410Y019674D01*
X011454Y019679D01*
X011498Y019680D01*
X011542Y019677D01*
X011586Y019670D01*
X011629Y019659D01*
X011671Y019645D01*
X011711Y019627D01*
X011750Y019605D01*
X011786Y019581D01*
X011820Y019553D01*
X011852Y019522D01*
X011881Y019488D01*
X011907Y019452D01*
X011929Y019414D01*
X011948Y019374D01*
X011963Y019332D01*
X011975Y019290D01*
X011983Y019246D01*
X011987Y019202D01*
X011987Y019158D01*
X011983Y019114D01*
X011975Y019070D01*
X011963Y019028D01*
X011948Y018986D01*
X011929Y018946D01*
X011907Y018908D01*
X011881Y018872D01*
X011852Y018838D01*
X011820Y018807D01*
X011786Y018779D01*
X011750Y018755D01*
X011711Y018733D01*
X011671Y018715D01*
X011629Y018701D01*
X011586Y018690D01*
X011542Y018683D01*
X011498Y018680D01*
X011454Y018681D01*
X011410Y018686D01*
X011367Y018695D01*
X011324Y018707D01*
X011283Y018724D01*
X011243Y018743D01*
X011206Y018767D01*
X011170Y018793D01*
X011137Y018823D01*
X011107Y018855D01*
X011080Y018890D01*
X011056Y018927D01*
X011035Y018966D01*
X011018Y019007D01*
X011005Y019049D01*
X010995Y019092D01*
X010989Y019136D01*
X010987Y019180D01*
X010487Y019180D02*
X009487Y019180D01*
X009487Y015180D01*
X008887Y015180D01*
X008885Y015219D01*
X008879Y015258D01*
X008870Y015296D01*
X008857Y015333D01*
X008840Y015369D01*
X008820Y015402D01*
X008796Y015434D01*
X008770Y015463D01*
X008741Y015489D01*
X008709Y015513D01*
X008676Y015533D01*
X008640Y015550D01*
X008603Y015563D01*
X008565Y015572D01*
X008526Y015578D01*
X008487Y015580D01*
X008448Y015578D01*
X008409Y015572D01*
X008371Y015563D01*
X008334Y015550D01*
X008298Y015533D01*
X008265Y015513D01*
X008233Y015489D01*
X008204Y015463D01*
X008178Y015434D01*
X008154Y015402D01*
X008134Y015369D01*
X008117Y015333D01*
X008104Y015296D01*
X008095Y015258D01*
X008089Y015219D01*
X008087Y015180D01*
X007487Y015180D02*
X007487Y019180D01*
X009487Y019180D01*
X010487Y019180D02*
X010487Y015180D01*
X009487Y015180D01*
X007487Y015180D02*
X006487Y015180D01*
X006487Y019180D01*
X007487Y019180D01*
X006487Y020180D02*
X006489Y020224D01*
X006495Y020268D01*
X006505Y020311D01*
X006518Y020353D01*
X006535Y020394D01*
X006556Y020433D01*
X006580Y020470D01*
X006607Y020505D01*
X006637Y020537D01*
X006670Y020567D01*
X006706Y020593D01*
X006743Y020617D01*
X006783Y020636D01*
X006824Y020653D01*
X006867Y020665D01*
X006910Y020674D01*
X006954Y020679D01*
X006998Y020680D01*
X007042Y020677D01*
X007086Y020670D01*
X007129Y020659D01*
X007171Y020645D01*
X007211Y020627D01*
X007250Y020605D01*
X007286Y020581D01*
X007320Y020553D01*
X007352Y020522D01*
X007381Y020488D01*
X007407Y020452D01*
X007429Y020414D01*
X007448Y020374D01*
X007463Y020332D01*
X007475Y020290D01*
X007483Y020246D01*
X007487Y020202D01*
X007487Y020158D01*
X007483Y020114D01*
X007475Y020070D01*
X007463Y020028D01*
X007448Y019986D01*
X007429Y019946D01*
X007407Y019908D01*
X007381Y019872D01*
X007352Y019838D01*
X007320Y019807D01*
X007286Y019779D01*
X007250Y019755D01*
X007211Y019733D01*
X007171Y019715D01*
X007129Y019701D01*
X007086Y019690D01*
X007042Y019683D01*
X006998Y019680D01*
X006954Y019681D01*
X006910Y019686D01*
X006867Y019695D01*
X006824Y019707D01*
X006783Y019724D01*
X006743Y019743D01*
X006706Y019767D01*
X006670Y019793D01*
X006637Y019823D01*
X006607Y019855D01*
X006580Y019890D01*
X006556Y019927D01*
X006535Y019966D01*
X006518Y020007D01*
X006505Y020049D01*
X006495Y020092D01*
X006489Y020136D01*
X006487Y020180D01*
X003987Y019180D02*
X003989Y019224D01*
X003995Y019268D01*
X004005Y019311D01*
X004018Y019353D01*
X004035Y019394D01*
X004056Y019433D01*
X004080Y019470D01*
X004107Y019505D01*
X004137Y019537D01*
X004170Y019567D01*
X004206Y019593D01*
X004243Y019617D01*
X004283Y019636D01*
X004324Y019653D01*
X004367Y019665D01*
X004410Y019674D01*
X004454Y019679D01*
X004498Y019680D01*
X004542Y019677D01*
X004586Y019670D01*
X004629Y019659D01*
X004671Y019645D01*
X004711Y019627D01*
X004750Y019605D01*
X004786Y019581D01*
X004820Y019553D01*
X004852Y019522D01*
X004881Y019488D01*
X004907Y019452D01*
X004929Y019414D01*
X004948Y019374D01*
X004963Y019332D01*
X004975Y019290D01*
X004983Y019246D01*
X004987Y019202D01*
X004987Y019158D01*
X004983Y019114D01*
X004975Y019070D01*
X004963Y019028D01*
X004948Y018986D01*
X004929Y018946D01*
X004907Y018908D01*
X004881Y018872D01*
X004852Y018838D01*
X004820Y018807D01*
X004786Y018779D01*
X004750Y018755D01*
X004711Y018733D01*
X004671Y018715D01*
X004629Y018701D01*
X004586Y018690D01*
X004542Y018683D01*
X004498Y018680D01*
X004454Y018681D01*
X004410Y018686D01*
X004367Y018695D01*
X004324Y018707D01*
X004283Y018724D01*
X004243Y018743D01*
X004206Y018767D01*
X004170Y018793D01*
X004137Y018823D01*
X004107Y018855D01*
X004080Y018890D01*
X004056Y018927D01*
X004035Y018966D01*
X004018Y019007D01*
X004005Y019049D01*
X003995Y019092D01*
X003989Y019136D01*
X003987Y019180D01*
X003987Y017680D02*
X003989Y017724D01*
X003995Y017768D01*
X004005Y017811D01*
X004018Y017853D01*
X004035Y017894D01*
X004056Y017933D01*
X004080Y017970D01*
X004107Y018005D01*
X004137Y018037D01*
X004170Y018067D01*
X004206Y018093D01*
X004243Y018117D01*
X004283Y018136D01*
X004324Y018153D01*
X004367Y018165D01*
X004410Y018174D01*
X004454Y018179D01*
X004498Y018180D01*
X004542Y018177D01*
X004586Y018170D01*
X004629Y018159D01*
X004671Y018145D01*
X004711Y018127D01*
X004750Y018105D01*
X004786Y018081D01*
X004820Y018053D01*
X004852Y018022D01*
X004881Y017988D01*
X004907Y017952D01*
X004929Y017914D01*
X004948Y017874D01*
X004963Y017832D01*
X004975Y017790D01*
X004983Y017746D01*
X004987Y017702D01*
X004987Y017658D01*
X004983Y017614D01*
X004975Y017570D01*
X004963Y017528D01*
X004948Y017486D01*
X004929Y017446D01*
X004907Y017408D01*
X004881Y017372D01*
X004852Y017338D01*
X004820Y017307D01*
X004786Y017279D01*
X004750Y017255D01*
X004711Y017233D01*
X004671Y017215D01*
X004629Y017201D01*
X004586Y017190D01*
X004542Y017183D01*
X004498Y017180D01*
X004454Y017181D01*
X004410Y017186D01*
X004367Y017195D01*
X004324Y017207D01*
X004283Y017224D01*
X004243Y017243D01*
X004206Y017267D01*
X004170Y017293D01*
X004137Y017323D01*
X004107Y017355D01*
X004080Y017390D01*
X004056Y017427D01*
X004035Y017466D01*
X004018Y017507D01*
X004005Y017549D01*
X003995Y017592D01*
X003989Y017636D01*
X003987Y017680D01*
X004987Y016180D02*
X004989Y016224D01*
X004995Y016268D01*
X005005Y016311D01*
X005018Y016353D01*
X005035Y016394D01*
X005056Y016433D01*
X005080Y016470D01*
X005107Y016505D01*
X005137Y016537D01*
X005170Y016567D01*
X005206Y016593D01*
X005243Y016617D01*
X005283Y016636D01*
X005324Y016653D01*
X005367Y016665D01*
X005410Y016674D01*
X005454Y016679D01*
X005498Y016680D01*
X005542Y016677D01*
X005586Y016670D01*
X005629Y016659D01*
X005671Y016645D01*
X005711Y016627D01*
X005750Y016605D01*
X005786Y016581D01*
X005820Y016553D01*
X005852Y016522D01*
X005881Y016488D01*
X005907Y016452D01*
X005929Y016414D01*
X005948Y016374D01*
X005963Y016332D01*
X005975Y016290D01*
X005983Y016246D01*
X005987Y016202D01*
X005987Y016158D01*
X005983Y016114D01*
X005975Y016070D01*
X005963Y016028D01*
X005948Y015986D01*
X005929Y015946D01*
X005907Y015908D01*
X005881Y015872D01*
X005852Y015838D01*
X005820Y015807D01*
X005786Y015779D01*
X005750Y015755D01*
X005711Y015733D01*
X005671Y015715D01*
X005629Y015701D01*
X005586Y015690D01*
X005542Y015683D01*
X005498Y015680D01*
X005454Y015681D01*
X005410Y015686D01*
X005367Y015695D01*
X005324Y015707D01*
X005283Y015724D01*
X005243Y015743D01*
X005206Y015767D01*
X005170Y015793D01*
X005137Y015823D01*
X005107Y015855D01*
X005080Y015890D01*
X005056Y015927D01*
X005035Y015966D01*
X005018Y016007D01*
X005005Y016049D01*
X004995Y016092D01*
X004989Y016136D01*
X004987Y016180D01*
X003987Y015030D02*
X002987Y015030D01*
X002970Y015028D01*
X002953Y015024D01*
X002937Y015017D01*
X002923Y015007D01*
X002910Y014994D01*
X002900Y014980D01*
X002893Y014964D01*
X002889Y014947D01*
X002887Y014930D01*
X002887Y012430D01*
X002889Y012413D01*
X002893Y012396D01*
X002900Y012380D01*
X002910Y012366D01*
X002923Y012353D01*
X002937Y012343D01*
X002953Y012336D01*
X002970Y012332D01*
X002987Y012330D01*
X003987Y012330D01*
X004004Y012332D01*
X004021Y012336D01*
X004037Y012343D01*
X004051Y012353D01*
X004064Y012366D01*
X004074Y012380D01*
X004081Y012396D01*
X004085Y012413D01*
X004087Y012430D01*
X004087Y014930D01*
X004085Y014947D01*
X004081Y014964D01*
X004074Y014980D01*
X004064Y014994D01*
X004051Y015007D01*
X004037Y015017D01*
X004021Y015024D01*
X004004Y015028D01*
X003987Y015030D01*
X008987Y010180D02*
X008989Y010224D01*
X008995Y010268D01*
X009005Y010311D01*
X009018Y010353D01*
X009035Y010394D01*
X009056Y010433D01*
X009080Y010470D01*
X009107Y010505D01*
X009137Y010537D01*
X009170Y010567D01*
X009206Y010593D01*
X009243Y010617D01*
X009283Y010636D01*
X009324Y010653D01*
X009367Y010665D01*
X009410Y010674D01*
X009454Y010679D01*
X009498Y010680D01*
X009542Y010677D01*
X009586Y010670D01*
X009629Y010659D01*
X009671Y010645D01*
X009711Y010627D01*
X009750Y010605D01*
X009786Y010581D01*
X009820Y010553D01*
X009852Y010522D01*
X009881Y010488D01*
X009907Y010452D01*
X009929Y010414D01*
X009948Y010374D01*
X009963Y010332D01*
X009975Y010290D01*
X009983Y010246D01*
X009987Y010202D01*
X009987Y010158D01*
X009983Y010114D01*
X009975Y010070D01*
X009963Y010028D01*
X009948Y009986D01*
X009929Y009946D01*
X009907Y009908D01*
X009881Y009872D01*
X009852Y009838D01*
X009820Y009807D01*
X009786Y009779D01*
X009750Y009755D01*
X009711Y009733D01*
X009671Y009715D01*
X009629Y009701D01*
X009586Y009690D01*
X009542Y009683D01*
X009498Y009680D01*
X009454Y009681D01*
X009410Y009686D01*
X009367Y009695D01*
X009324Y009707D01*
X009283Y009724D01*
X009243Y009743D01*
X009206Y009767D01*
X009170Y009793D01*
X009137Y009823D01*
X009107Y009855D01*
X009080Y009890D01*
X009056Y009927D01*
X009035Y009966D01*
X009018Y010007D01*
X009005Y010049D01*
X008995Y010092D01*
X008989Y010136D01*
X008987Y010180D01*
X006887Y008225D02*
X006887Y008067D01*
X006337Y008005D02*
X006337Y006355D01*
X006887Y006293D02*
X006887Y006135D01*
X006337Y006355D02*
X006388Y006318D01*
X006441Y006283D01*
X006497Y006251D01*
X006554Y006223D01*
X006613Y006199D01*
X006673Y006178D01*
X006734Y006161D01*
X006796Y006147D01*
X006859Y006138D01*
X006922Y006132D01*
X006986Y006130D01*
X007050Y006132D01*
X007113Y006138D01*
X007176Y006147D01*
X007238Y006160D01*
X007299Y006178D01*
X007359Y006198D01*
X007418Y006223D01*
X007475Y006250D01*
X007531Y006282D01*
X007584Y006316D01*
X007635Y006354D01*
X007684Y006395D01*
X007730Y006439D01*
X007774Y006485D01*
X007815Y006534D01*
X007852Y006585D01*
X007887Y006639D01*
X007918Y006694D01*
X007946Y006751D01*
X007970Y006810D01*
X007990Y006870D01*
X007990Y007490D02*
X007970Y007550D01*
X007946Y007609D01*
X007918Y007666D01*
X007887Y007721D01*
X007852Y007775D01*
X007815Y007826D01*
X007774Y007875D01*
X007730Y007921D01*
X007684Y007965D01*
X007635Y008006D01*
X007584Y008044D01*
X007531Y008078D01*
X007475Y008109D01*
X007418Y008137D01*
X007359Y008162D01*
X007299Y008182D01*
X007238Y008200D01*
X007176Y008213D01*
X007113Y008222D01*
X007050Y008228D01*
X006986Y008230D01*
X006922Y008228D01*
X006859Y008222D01*
X006796Y008213D01*
X006734Y008199D01*
X006673Y008182D01*
X006613Y008161D01*
X006554Y008137D01*
X006497Y008109D01*
X006441Y008077D01*
X006388Y008042D01*
X006337Y008005D01*
X003387Y008067D02*
X003387Y008225D01*
X002837Y008005D02*
X002837Y006355D01*
X003387Y006293D02*
X003387Y006135D01*
X002837Y006355D02*
X002888Y006318D01*
X002941Y006283D01*
X002997Y006251D01*
X003054Y006223D01*
X003113Y006199D01*
X003173Y006178D01*
X003234Y006161D01*
X003296Y006147D01*
X003359Y006138D01*
X003422Y006132D01*
X003486Y006130D01*
X003550Y006132D01*
X003613Y006138D01*
X003676Y006147D01*
X003738Y006160D01*
X003799Y006178D01*
X003859Y006198D01*
X003918Y006223D01*
X003975Y006250D01*
X004031Y006282D01*
X004084Y006316D01*
X004135Y006354D01*
X004184Y006395D01*
X004230Y006439D01*
X004274Y006485D01*
X004315Y006534D01*
X004352Y006585D01*
X004387Y006639D01*
X004418Y006694D01*
X004446Y006751D01*
X004470Y006810D01*
X004490Y006870D01*
X004490Y007490D02*
X004470Y007550D01*
X004446Y007609D01*
X004418Y007666D01*
X004387Y007721D01*
X004352Y007775D01*
X004315Y007826D01*
X004274Y007875D01*
X004230Y007921D01*
X004184Y007965D01*
X004135Y008006D01*
X004084Y008044D01*
X004031Y008078D01*
X003975Y008109D01*
X003918Y008137D01*
X003859Y008162D01*
X003799Y008182D01*
X003738Y008200D01*
X003676Y008213D01*
X003613Y008222D01*
X003550Y008228D01*
X003486Y008230D01*
X003422Y008228D01*
X003359Y008222D01*
X003296Y008213D01*
X003234Y008199D01*
X003173Y008182D01*
X003113Y008161D01*
X003054Y008137D01*
X002997Y008109D01*
X002941Y008077D01*
X002888Y008042D01*
X002837Y008005D01*
X009987Y006680D02*
X009989Y006724D01*
X009995Y006768D01*
X010005Y006811D01*
X010018Y006853D01*
X010035Y006894D01*
X010056Y006933D01*
X010080Y006970D01*
X010107Y007005D01*
X010137Y007037D01*
X010170Y007067D01*
X010206Y007093D01*
X010243Y007117D01*
X010283Y007136D01*
X010324Y007153D01*
X010367Y007165D01*
X010410Y007174D01*
X010454Y007179D01*
X010498Y007180D01*
X010542Y007177D01*
X010586Y007170D01*
X010629Y007159D01*
X010671Y007145D01*
X010711Y007127D01*
X010750Y007105D01*
X010786Y007081D01*
X010820Y007053D01*
X010852Y007022D01*
X010881Y006988D01*
X010907Y006952D01*
X010929Y006914D01*
X010948Y006874D01*
X010963Y006832D01*
X010975Y006790D01*
X010983Y006746D01*
X010987Y006702D01*
X010987Y006658D01*
X010983Y006614D01*
X010975Y006570D01*
X010963Y006528D01*
X010948Y006486D01*
X010929Y006446D01*
X010907Y006408D01*
X010881Y006372D01*
X010852Y006338D01*
X010820Y006307D01*
X010786Y006279D01*
X010750Y006255D01*
X010711Y006233D01*
X010671Y006215D01*
X010629Y006201D01*
X010586Y006190D01*
X010542Y006183D01*
X010498Y006180D01*
X010454Y006181D01*
X010410Y006186D01*
X010367Y006195D01*
X010324Y006207D01*
X010283Y006224D01*
X010243Y006243D01*
X010206Y006267D01*
X010170Y006293D01*
X010137Y006323D01*
X010107Y006355D01*
X010080Y006390D01*
X010056Y006427D01*
X010035Y006466D01*
X010018Y006507D01*
X010005Y006549D01*
X009995Y006592D01*
X009989Y006636D01*
X009987Y006680D01*
X012485Y011530D02*
X012485Y012280D01*
X012524Y012282D01*
X012563Y012288D01*
X012601Y012297D01*
X012638Y012310D01*
X012674Y012327D01*
X012707Y012347D01*
X012739Y012371D01*
X012768Y012397D01*
X012794Y012426D01*
X012818Y012458D01*
X012838Y012491D01*
X012855Y012527D01*
X012868Y012564D01*
X012877Y012602D01*
X012883Y012641D01*
X012885Y012680D01*
X012883Y012719D01*
X012877Y012758D01*
X012868Y012796D01*
X012855Y012833D01*
X012838Y012869D01*
X012818Y012902D01*
X012794Y012934D01*
X012768Y012963D01*
X012739Y012989D01*
X012707Y013013D01*
X012674Y013033D01*
X012638Y013050D01*
X012601Y013063D01*
X012563Y013072D01*
X012524Y013078D01*
X012485Y013080D01*
X012485Y013830D01*
X022485Y013830D01*
X022485Y011530D01*
X012485Y011530D01*
X010987Y016180D02*
X010989Y016224D01*
X010995Y016268D01*
X011005Y016311D01*
X011018Y016353D01*
X011035Y016394D01*
X011056Y016433D01*
X011080Y016470D01*
X011107Y016505D01*
X011137Y016537D01*
X011170Y016567D01*
X011206Y016593D01*
X011243Y016617D01*
X011283Y016636D01*
X011324Y016653D01*
X011367Y016665D01*
X011410Y016674D01*
X011454Y016679D01*
X011498Y016680D01*
X011542Y016677D01*
X011586Y016670D01*
X011629Y016659D01*
X011671Y016645D01*
X011711Y016627D01*
X011750Y016605D01*
X011786Y016581D01*
X011820Y016553D01*
X011852Y016522D01*
X011881Y016488D01*
X011907Y016452D01*
X011929Y016414D01*
X011948Y016374D01*
X011963Y016332D01*
X011975Y016290D01*
X011983Y016246D01*
X011987Y016202D01*
X011987Y016158D01*
X011983Y016114D01*
X011975Y016070D01*
X011963Y016028D01*
X011948Y015986D01*
X011929Y015946D01*
X011907Y015908D01*
X011881Y015872D01*
X011852Y015838D01*
X011820Y015807D01*
X011786Y015779D01*
X011750Y015755D01*
X011711Y015733D01*
X011671Y015715D01*
X011629Y015701D01*
X011586Y015690D01*
X011542Y015683D01*
X011498Y015680D01*
X011454Y015681D01*
X011410Y015686D01*
X011367Y015695D01*
X011324Y015707D01*
X011283Y015724D01*
X011243Y015743D01*
X011206Y015767D01*
X011170Y015793D01*
X011137Y015823D01*
X011107Y015855D01*
X011080Y015890D01*
X011056Y015927D01*
X011035Y015966D01*
X011018Y016007D01*
X011005Y016049D01*
X010995Y016092D01*
X010989Y016136D01*
X010987Y016180D01*
X015487Y018680D02*
X015489Y018724D01*
X015495Y018768D01*
X015505Y018811D01*
X015518Y018853D01*
X015535Y018894D01*
X015556Y018933D01*
X015580Y018970D01*
X015607Y019005D01*
X015637Y019037D01*
X015670Y019067D01*
X015706Y019093D01*
X015743Y019117D01*
X015783Y019136D01*
X015824Y019153D01*
X015867Y019165D01*
X015910Y019174D01*
X015954Y019179D01*
X015998Y019180D01*
X016042Y019177D01*
X016086Y019170D01*
X016129Y019159D01*
X016171Y019145D01*
X016211Y019127D01*
X016250Y019105D01*
X016286Y019081D01*
X016320Y019053D01*
X016352Y019022D01*
X016381Y018988D01*
X016407Y018952D01*
X016429Y018914D01*
X016448Y018874D01*
X016463Y018832D01*
X016475Y018790D01*
X016483Y018746D01*
X016487Y018702D01*
X016487Y018658D01*
X016483Y018614D01*
X016475Y018570D01*
X016463Y018528D01*
X016448Y018486D01*
X016429Y018446D01*
X016407Y018408D01*
X016381Y018372D01*
X016352Y018338D01*
X016320Y018307D01*
X016286Y018279D01*
X016250Y018255D01*
X016211Y018233D01*
X016171Y018215D01*
X016129Y018201D01*
X016086Y018190D01*
X016042Y018183D01*
X015998Y018180D01*
X015954Y018181D01*
X015910Y018186D01*
X015867Y018195D01*
X015824Y018207D01*
X015783Y018224D01*
X015743Y018243D01*
X015706Y018267D01*
X015670Y018293D01*
X015637Y018323D01*
X015607Y018355D01*
X015580Y018390D01*
X015556Y018427D01*
X015535Y018466D01*
X015518Y018507D01*
X015505Y018549D01*
X015495Y018592D01*
X015489Y018636D01*
X015487Y018680D01*
X020987Y018580D02*
X020987Y019330D01*
X027987Y019330D01*
X027987Y017030D01*
X020987Y017030D01*
X020987Y017780D01*
X021026Y017782D01*
X021065Y017788D01*
X021103Y017797D01*
X021140Y017810D01*
X021176Y017827D01*
X021209Y017847D01*
X021241Y017871D01*
X021270Y017897D01*
X021296Y017926D01*
X021320Y017958D01*
X021340Y017991D01*
X021357Y018027D01*
X021370Y018064D01*
X021379Y018102D01*
X021385Y018141D01*
X021387Y018180D01*
X021385Y018219D01*
X021379Y018258D01*
X021370Y018296D01*
X021357Y018333D01*
X021340Y018369D01*
X021320Y018402D01*
X021296Y018434D01*
X021270Y018463D01*
X021241Y018489D01*
X021209Y018513D01*
X021176Y018533D01*
X021140Y018550D01*
X021103Y018563D01*
X021065Y018572D01*
X021026Y018578D01*
X020987Y018580D01*
X026053Y023684D02*
X026055Y023725D01*
X026061Y023766D01*
X026071Y023806D01*
X026084Y023845D01*
X026101Y023883D01*
X026122Y023919D01*
X026146Y023952D01*
X026173Y023983D01*
X026203Y024012D01*
X026235Y024038D01*
X026270Y024060D01*
X026307Y024079D01*
X026345Y024094D01*
X026385Y024106D01*
X026425Y024114D01*
X026466Y024118D01*
X026508Y024118D01*
X026549Y024114D01*
X026589Y024106D01*
X026629Y024094D01*
X026667Y024079D01*
X026704Y024060D01*
X026739Y024038D01*
X026771Y024012D01*
X026801Y023983D01*
X026828Y023952D01*
X026852Y023919D01*
X026873Y023883D01*
X026890Y023845D01*
X026903Y023806D01*
X026913Y023766D01*
X026919Y023725D01*
X026921Y023684D01*
X026919Y023643D01*
X026913Y023602D01*
X026903Y023562D01*
X026890Y023523D01*
X026873Y023485D01*
X026852Y023449D01*
X026828Y023416D01*
X026801Y023385D01*
X026771Y023356D01*
X026739Y023330D01*
X026704Y023308D01*
X026667Y023289D01*
X026629Y023274D01*
X026589Y023262D01*
X026549Y023254D01*
X026508Y023250D01*
X026466Y023250D01*
X026425Y023254D01*
X026385Y023262D01*
X026345Y023274D01*
X026307Y023289D01*
X026270Y023308D01*
X026235Y023330D01*
X026203Y023356D01*
X026173Y023385D01*
X026146Y023416D01*
X026122Y023449D01*
X026101Y023485D01*
X026084Y023523D01*
X026071Y023562D01*
X026061Y023602D01*
X026055Y023643D01*
X026053Y023684D01*
X027987Y024180D02*
X027989Y024224D01*
X027995Y024268D01*
X028005Y024311D01*
X028018Y024353D01*
X028035Y024394D01*
X028056Y024433D01*
X028080Y024470D01*
X028107Y024505D01*
X028137Y024537D01*
X028170Y024567D01*
X028206Y024593D01*
X028243Y024617D01*
X028283Y024636D01*
X028324Y024653D01*
X028367Y024665D01*
X028410Y024674D01*
X028454Y024679D01*
X028498Y024680D01*
X028542Y024677D01*
X028586Y024670D01*
X028629Y024659D01*
X028671Y024645D01*
X028711Y024627D01*
X028750Y024605D01*
X028786Y024581D01*
X028820Y024553D01*
X028852Y024522D01*
X028881Y024488D01*
X028907Y024452D01*
X028929Y024414D01*
X028948Y024374D01*
X028963Y024332D01*
X028975Y024290D01*
X028983Y024246D01*
X028987Y024202D01*
X028987Y024158D01*
X028983Y024114D01*
X028975Y024070D01*
X028963Y024028D01*
X028948Y023986D01*
X028929Y023946D01*
X028907Y023908D01*
X028881Y023872D01*
X028852Y023838D01*
X028820Y023807D01*
X028786Y023779D01*
X028750Y023755D01*
X028711Y023733D01*
X028671Y023715D01*
X028629Y023701D01*
X028586Y023690D01*
X028542Y023683D01*
X028498Y023680D01*
X028454Y023681D01*
X028410Y023686D01*
X028367Y023695D01*
X028324Y023707D01*
X028283Y023724D01*
X028243Y023743D01*
X028206Y023767D01*
X028170Y023793D01*
X028137Y023823D01*
X028107Y023855D01*
X028080Y023890D01*
X028056Y023927D01*
X028035Y023966D01*
X028018Y024007D01*
X028005Y024049D01*
X027995Y024092D01*
X027989Y024136D01*
X027987Y024180D01*
X027987Y022180D02*
X027989Y022224D01*
X027995Y022268D01*
X028005Y022311D01*
X028018Y022353D01*
X028035Y022394D01*
X028056Y022433D01*
X028080Y022470D01*
X028107Y022505D01*
X028137Y022537D01*
X028170Y022567D01*
X028206Y022593D01*
X028243Y022617D01*
X028283Y022636D01*
X028324Y022653D01*
X028367Y022665D01*
X028410Y022674D01*
X028454Y022679D01*
X028498Y022680D01*
X028542Y022677D01*
X028586Y022670D01*
X028629Y022659D01*
X028671Y022645D01*
X028711Y022627D01*
X028750Y022605D01*
X028786Y022581D01*
X028820Y022553D01*
X028852Y022522D01*
X028881Y022488D01*
X028907Y022452D01*
X028929Y022414D01*
X028948Y022374D01*
X028963Y022332D01*
X028975Y022290D01*
X028983Y022246D01*
X028987Y022202D01*
X028987Y022158D01*
X028983Y022114D01*
X028975Y022070D01*
X028963Y022028D01*
X028948Y021986D01*
X028929Y021946D01*
X028907Y021908D01*
X028881Y021872D01*
X028852Y021838D01*
X028820Y021807D01*
X028786Y021779D01*
X028750Y021755D01*
X028711Y021733D01*
X028671Y021715D01*
X028629Y021701D01*
X028586Y021690D01*
X028542Y021683D01*
X028498Y021680D01*
X028454Y021681D01*
X028410Y021686D01*
X028367Y021695D01*
X028324Y021707D01*
X028283Y021724D01*
X028243Y021743D01*
X028206Y021767D01*
X028170Y021793D01*
X028137Y021823D01*
X028107Y021855D01*
X028080Y021890D01*
X028056Y021927D01*
X028035Y021966D01*
X028018Y022007D01*
X028005Y022049D01*
X027995Y022092D01*
X027989Y022136D01*
X027987Y022180D01*
X028513Y012312D02*
X028543Y012277D01*
X028574Y012244D01*
X028609Y012214D01*
X028645Y012187D01*
X028683Y012163D01*
X028723Y012141D01*
X028765Y012123D01*
X028808Y012107D01*
X028852Y012095D01*
X028896Y012087D01*
X028942Y012082D01*
X028987Y012080D01*
X028507Y013040D02*
X028536Y013076D01*
X028568Y013110D01*
X028603Y013141D01*
X028639Y013169D01*
X028678Y013194D01*
X028719Y013217D01*
X028761Y013236D01*
X028804Y013252D01*
X028849Y013264D01*
X028895Y013273D01*
X028941Y013278D01*
X028987Y013280D01*
X029461Y012312D02*
X029431Y012277D01*
X029400Y012244D01*
X029365Y012214D01*
X029329Y012187D01*
X029291Y012163D01*
X029251Y012141D01*
X029209Y012123D01*
X029166Y012107D01*
X029122Y012095D01*
X029078Y012087D01*
X029032Y012082D01*
X028987Y012080D01*
X029475Y013029D02*
X029446Y013066D01*
X029414Y013101D01*
X029379Y013134D01*
X029342Y013164D01*
X029303Y013190D01*
X029262Y013213D01*
X029218Y013234D01*
X029174Y013250D01*
X029128Y013263D01*
X029082Y013272D01*
X029034Y013278D01*
X028987Y013280D01*
X027987Y011180D02*
X027989Y011224D01*
X027995Y011268D01*
X028005Y011311D01*
X028018Y011353D01*
X028035Y011394D01*
X028056Y011433D01*
X028080Y011470D01*
X028107Y011505D01*
X028137Y011537D01*
X028170Y011567D01*
X028206Y011593D01*
X028243Y011617D01*
X028283Y011636D01*
X028324Y011653D01*
X028367Y011665D01*
X028410Y011674D01*
X028454Y011679D01*
X028498Y011680D01*
X028542Y011677D01*
X028586Y011670D01*
X028629Y011659D01*
X028671Y011645D01*
X028711Y011627D01*
X028750Y011605D01*
X028786Y011581D01*
X028820Y011553D01*
X028852Y011522D01*
X028881Y011488D01*
X028907Y011452D01*
X028929Y011414D01*
X028948Y011374D01*
X028963Y011332D01*
X028975Y011290D01*
X028983Y011246D01*
X028987Y011202D01*
X028987Y011158D01*
X028983Y011114D01*
X028975Y011070D01*
X028963Y011028D01*
X028948Y010986D01*
X028929Y010946D01*
X028907Y010908D01*
X028881Y010872D01*
X028852Y010838D01*
X028820Y010807D01*
X028786Y010779D01*
X028750Y010755D01*
X028711Y010733D01*
X028671Y010715D01*
X028629Y010701D01*
X028586Y010690D01*
X028542Y010683D01*
X028498Y010680D01*
X028454Y010681D01*
X028410Y010686D01*
X028367Y010695D01*
X028324Y010707D01*
X028283Y010724D01*
X028243Y010743D01*
X028206Y010767D01*
X028170Y010793D01*
X028137Y010823D01*
X028107Y010855D01*
X028080Y010890D01*
X028056Y010927D01*
X028035Y010966D01*
X028018Y011007D01*
X028005Y011049D01*
X027995Y011092D01*
X027989Y011136D01*
X027987Y011180D01*
X028987Y010280D02*
X029034Y010278D01*
X029082Y010272D01*
X029128Y010263D01*
X029174Y010250D01*
X029218Y010234D01*
X029262Y010213D01*
X029303Y010190D01*
X029342Y010164D01*
X029379Y010134D01*
X029414Y010101D01*
X029446Y010066D01*
X029475Y010029D01*
X028987Y009080D02*
X028942Y009082D01*
X028896Y009087D01*
X028852Y009095D01*
X028808Y009107D01*
X028765Y009123D01*
X028723Y009141D01*
X028683Y009163D01*
X028645Y009187D01*
X028609Y009214D01*
X028574Y009244D01*
X028543Y009277D01*
X028513Y009312D01*
X028987Y009080D02*
X029032Y009082D01*
X029078Y009087D01*
X029122Y009095D01*
X029166Y009107D01*
X029209Y009123D01*
X029251Y009141D01*
X029291Y009163D01*
X029329Y009187D01*
X029365Y009214D01*
X029400Y009244D01*
X029431Y009277D01*
X029461Y009312D01*
X028987Y010280D02*
X028941Y010278D01*
X028895Y010273D01*
X028849Y010264D01*
X028804Y010252D01*
X028761Y010236D01*
X028719Y010217D01*
X028678Y010194D01*
X028639Y010169D01*
X028603Y010141D01*
X028568Y010110D01*
X028536Y010076D01*
X028507Y010040D01*
X027987Y008180D02*
X027989Y008224D01*
X027995Y008268D01*
X028005Y008311D01*
X028018Y008353D01*
X028035Y008394D01*
X028056Y008433D01*
X028080Y008470D01*
X028107Y008505D01*
X028137Y008537D01*
X028170Y008567D01*
X028206Y008593D01*
X028243Y008617D01*
X028283Y008636D01*
X028324Y008653D01*
X028367Y008665D01*
X028410Y008674D01*
X028454Y008679D01*
X028498Y008680D01*
X028542Y008677D01*
X028586Y008670D01*
X028629Y008659D01*
X028671Y008645D01*
X028711Y008627D01*
X028750Y008605D01*
X028786Y008581D01*
X028820Y008553D01*
X028852Y008522D01*
X028881Y008488D01*
X028907Y008452D01*
X028929Y008414D01*
X028948Y008374D01*
X028963Y008332D01*
X028975Y008290D01*
X028983Y008246D01*
X028987Y008202D01*
X028987Y008158D01*
X028983Y008114D01*
X028975Y008070D01*
X028963Y008028D01*
X028948Y007986D01*
X028929Y007946D01*
X028907Y007908D01*
X028881Y007872D01*
X028852Y007838D01*
X028820Y007807D01*
X028786Y007779D01*
X028750Y007755D01*
X028711Y007733D01*
X028671Y007715D01*
X028629Y007701D01*
X028586Y007690D01*
X028542Y007683D01*
X028498Y007680D01*
X028454Y007681D01*
X028410Y007686D01*
X028367Y007695D01*
X028324Y007707D01*
X028283Y007724D01*
X028243Y007743D01*
X028206Y007767D01*
X028170Y007793D01*
X028137Y007823D01*
X028107Y007855D01*
X028080Y007890D01*
X028056Y007927D01*
X028035Y007966D01*
X028018Y008007D01*
X028005Y008049D01*
X027995Y008092D01*
X027989Y008136D01*
X027987Y008180D01*
X027987Y006680D02*
X027989Y006724D01*
X027995Y006768D01*
X028005Y006811D01*
X028018Y006853D01*
X028035Y006894D01*
X028056Y006933D01*
X028080Y006970D01*
X028107Y007005D01*
X028137Y007037D01*
X028170Y007067D01*
X028206Y007093D01*
X028243Y007117D01*
X028283Y007136D01*
X028324Y007153D01*
X028367Y007165D01*
X028410Y007174D01*
X028454Y007179D01*
X028498Y007180D01*
X028542Y007177D01*
X028586Y007170D01*
X028629Y007159D01*
X028671Y007145D01*
X028711Y007127D01*
X028750Y007105D01*
X028786Y007081D01*
X028820Y007053D01*
X028852Y007022D01*
X028881Y006988D01*
X028907Y006952D01*
X028929Y006914D01*
X028948Y006874D01*
X028963Y006832D01*
X028975Y006790D01*
X028983Y006746D01*
X028987Y006702D01*
X028987Y006658D01*
X028983Y006614D01*
X028975Y006570D01*
X028963Y006528D01*
X028948Y006486D01*
X028929Y006446D01*
X028907Y006408D01*
X028881Y006372D01*
X028852Y006338D01*
X028820Y006307D01*
X028786Y006279D01*
X028750Y006255D01*
X028711Y006233D01*
X028671Y006215D01*
X028629Y006201D01*
X028586Y006190D01*
X028542Y006183D01*
X028498Y006180D01*
X028454Y006181D01*
X028410Y006186D01*
X028367Y006195D01*
X028324Y006207D01*
X028283Y006224D01*
X028243Y006243D01*
X028206Y006267D01*
X028170Y006293D01*
X028137Y006323D01*
X028107Y006355D01*
X028080Y006390D01*
X028056Y006427D01*
X028035Y006466D01*
X028018Y006507D01*
X028005Y006549D01*
X027995Y006592D01*
X027989Y006636D01*
X027987Y006680D01*
X028987Y005780D02*
X029034Y005778D01*
X029082Y005772D01*
X029128Y005763D01*
X029174Y005750D01*
X029218Y005734D01*
X029262Y005713D01*
X029303Y005690D01*
X029342Y005664D01*
X029379Y005634D01*
X029414Y005601D01*
X029446Y005566D01*
X029475Y005529D01*
X028987Y004580D02*
X028942Y004582D01*
X028896Y004587D01*
X028852Y004595D01*
X028808Y004607D01*
X028765Y004623D01*
X028723Y004641D01*
X028683Y004663D01*
X028645Y004687D01*
X028609Y004714D01*
X028574Y004744D01*
X028543Y004777D01*
X028513Y004812D01*
X028987Y004580D02*
X029032Y004582D01*
X029078Y004587D01*
X029122Y004595D01*
X029166Y004607D01*
X029209Y004623D01*
X029251Y004641D01*
X029291Y004663D01*
X029329Y004687D01*
X029365Y004714D01*
X029400Y004744D01*
X029431Y004777D01*
X029461Y004812D01*
X028987Y005780D02*
X028941Y005778D01*
X028895Y005773D01*
X028849Y005764D01*
X028804Y005752D01*
X028761Y005736D01*
X028719Y005717D01*
X028678Y005694D01*
X028639Y005669D01*
X028603Y005641D01*
X028568Y005610D01*
X028536Y005576D01*
X028507Y005540D01*
X027987Y003680D02*
X027989Y003724D01*
X027995Y003768D01*
X028005Y003811D01*
X028018Y003853D01*
X028035Y003894D01*
X028056Y003933D01*
X028080Y003970D01*
X028107Y004005D01*
X028137Y004037D01*
X028170Y004067D01*
X028206Y004093D01*
X028243Y004117D01*
X028283Y004136D01*
X028324Y004153D01*
X028367Y004165D01*
X028410Y004174D01*
X028454Y004179D01*
X028498Y004180D01*
X028542Y004177D01*
X028586Y004170D01*
X028629Y004159D01*
X028671Y004145D01*
X028711Y004127D01*
X028750Y004105D01*
X028786Y004081D01*
X028820Y004053D01*
X028852Y004022D01*
X028881Y003988D01*
X028907Y003952D01*
X028929Y003914D01*
X028948Y003874D01*
X028963Y003832D01*
X028975Y003790D01*
X028983Y003746D01*
X028987Y003702D01*
X028987Y003658D01*
X028983Y003614D01*
X028975Y003570D01*
X028963Y003528D01*
X028948Y003486D01*
X028929Y003446D01*
X028907Y003408D01*
X028881Y003372D01*
X028852Y003338D01*
X028820Y003307D01*
X028786Y003279D01*
X028750Y003255D01*
X028711Y003233D01*
X028671Y003215D01*
X028629Y003201D01*
X028586Y003190D01*
X028542Y003183D01*
X028498Y003180D01*
X028454Y003181D01*
X028410Y003186D01*
X028367Y003195D01*
X028324Y003207D01*
X028283Y003224D01*
X028243Y003243D01*
X028206Y003267D01*
X028170Y003293D01*
X028137Y003323D01*
X028107Y003355D01*
X028080Y003390D01*
X028056Y003427D01*
X028035Y003466D01*
X028018Y003507D01*
X028005Y003549D01*
X027995Y003592D01*
X027989Y003636D01*
X027987Y003680D01*
X028987Y002780D02*
X029034Y002778D01*
X029082Y002772D01*
X029128Y002763D01*
X029174Y002750D01*
X029218Y002734D01*
X029262Y002713D01*
X029303Y002690D01*
X029342Y002664D01*
X029379Y002634D01*
X029414Y002601D01*
X029446Y002566D01*
X029475Y002529D01*
X028987Y001580D02*
X028942Y001582D01*
X028896Y001587D01*
X028852Y001595D01*
X028808Y001607D01*
X028765Y001623D01*
X028723Y001641D01*
X028683Y001663D01*
X028645Y001687D01*
X028609Y001714D01*
X028574Y001744D01*
X028543Y001777D01*
X028513Y001812D01*
X028987Y001580D02*
X029032Y001582D01*
X029078Y001587D01*
X029122Y001595D01*
X029166Y001607D01*
X029209Y001623D01*
X029251Y001641D01*
X029291Y001663D01*
X029329Y001687D01*
X029365Y001714D01*
X029400Y001744D01*
X029431Y001777D01*
X029461Y001812D01*
X028987Y002780D02*
X028941Y002778D01*
X028895Y002773D01*
X028849Y002764D01*
X028804Y002752D01*
X028761Y002736D01*
X028719Y002717D01*
X028678Y002694D01*
X028639Y002669D01*
X028603Y002641D01*
X028568Y002610D01*
X028536Y002576D01*
X028507Y002540D01*
X025637Y003180D02*
X023337Y003180D01*
X023337Y010180D01*
X024087Y010180D01*
X024089Y010141D01*
X024095Y010102D01*
X024104Y010064D01*
X024117Y010027D01*
X024134Y009991D01*
X024154Y009958D01*
X024178Y009926D01*
X024204Y009897D01*
X024233Y009871D01*
X024265Y009847D01*
X024298Y009827D01*
X024334Y009810D01*
X024371Y009797D01*
X024409Y009788D01*
X024448Y009782D01*
X024487Y009780D01*
X024526Y009782D01*
X024565Y009788D01*
X024603Y009797D01*
X024640Y009810D01*
X024676Y009827D01*
X024709Y009847D01*
X024741Y009871D01*
X024770Y009897D01*
X024796Y009926D01*
X024820Y009958D01*
X024840Y009991D01*
X024857Y010027D01*
X024870Y010064D01*
X024879Y010102D01*
X024885Y010141D01*
X024887Y010180D01*
X025637Y010180D01*
X025637Y003180D01*
D14*
X018222Y003117D02*
X018222Y002932D01*
X017851Y002932D01*
X017851Y003117D01*
X017913Y003179D01*
X018160Y003179D01*
X018222Y003117D01*
X018222Y002810D02*
X017851Y002810D01*
X017851Y002563D02*
X018222Y002810D01*
X018222Y002563D02*
X017851Y002563D01*
X017913Y002442D02*
X017851Y002380D01*
X017851Y002257D01*
X017913Y002195D01*
X018160Y002195D01*
X018222Y002257D01*
X018222Y002380D01*
X018160Y002442D01*
X018037Y002442D01*
X018037Y002318D01*
X015472Y002318D02*
X015101Y002318D01*
X015225Y002195D01*
X015472Y002195D02*
X015472Y002442D01*
X015472Y002563D02*
X015101Y002563D01*
X015101Y002748D01*
X015163Y002810D01*
X015287Y002810D01*
X015348Y002748D01*
X015348Y002563D01*
X015348Y002932D02*
X015348Y003117D01*
X015287Y003179D01*
X015163Y003179D01*
X015101Y003117D01*
X015101Y002932D01*
X015472Y002932D01*
X015472Y003300D02*
X015101Y003300D01*
X015101Y003485D01*
X015163Y003547D01*
X015287Y003547D01*
X015348Y003485D01*
X015348Y003300D01*
X015410Y003668D02*
X015472Y003730D01*
X015472Y003853D01*
X015410Y003915D01*
X015348Y003915D01*
X015287Y003853D01*
X015287Y003730D01*
X015225Y003668D01*
X015163Y003668D01*
X015101Y003730D01*
X015101Y003853D01*
X015163Y003915D01*
X011472Y003367D02*
X011472Y003182D01*
X011101Y003182D01*
X011101Y003367D01*
X011163Y003429D01*
X011410Y003429D01*
X011472Y003367D01*
X011472Y003060D02*
X011101Y003060D01*
X011101Y002813D02*
X011472Y003060D01*
X011472Y002813D02*
X011101Y002813D01*
X011163Y002692D02*
X011101Y002630D01*
X011101Y002507D01*
X011163Y002445D01*
X011410Y002445D01*
X011472Y002507D01*
X011472Y002630D01*
X011410Y002692D01*
X011287Y002692D01*
X011287Y002568D01*
X001660Y021695D02*
X001413Y021695D01*
X001351Y021757D01*
X001351Y021880D01*
X001413Y021942D01*
X001537Y021942D02*
X001537Y021818D01*
X001537Y021942D02*
X001660Y021942D01*
X001722Y021880D01*
X001722Y021757D01*
X001660Y021695D01*
X001722Y022063D02*
X001351Y022063D01*
X001722Y022310D01*
X001351Y022310D01*
X001351Y022432D02*
X001351Y022617D01*
X001413Y022679D01*
X001660Y022679D01*
X001722Y022617D01*
X001722Y022432D01*
X001351Y022432D01*
D15*
X012587Y011930D02*
X012589Y011954D01*
X012595Y011978D01*
X012604Y012000D01*
X012617Y012020D01*
X012633Y012038D01*
X012652Y012053D01*
X012673Y012066D01*
X012695Y012074D01*
X012719Y012079D01*
X012743Y012080D01*
X012767Y012077D01*
X012790Y012070D01*
X012812Y012060D01*
X012832Y012046D01*
X012849Y012029D01*
X012864Y012010D01*
X012875Y011989D01*
X012883Y011966D01*
X012887Y011942D01*
X012887Y011918D01*
X012883Y011894D01*
X012875Y011871D01*
X012864Y011850D01*
X012849Y011831D01*
X012832Y011814D01*
X012812Y011800D01*
X012790Y011790D01*
X012767Y011783D01*
X012743Y011780D01*
X012719Y011781D01*
X012695Y011786D01*
X012673Y011794D01*
X012652Y011807D01*
X012633Y011822D01*
X012617Y011840D01*
X012604Y011860D01*
X012595Y011882D01*
X012589Y011906D01*
X012587Y011930D01*
X006637Y010580D02*
X006637Y009780D01*
X004137Y009780D02*
X004137Y010580D01*
X001870Y007720D02*
X001811Y007720D01*
X001811Y007487D01*
X001870Y007352D02*
X001811Y007294D01*
X001811Y007177D01*
X001870Y007118D01*
X002103Y007118D01*
X001870Y007352D01*
X002103Y007352D01*
X002162Y007294D01*
X002162Y007177D01*
X002103Y007118D01*
X002103Y006984D02*
X002162Y006925D01*
X002162Y006808D01*
X002103Y006750D01*
X001870Y006984D01*
X002103Y006984D01*
X001870Y006984D02*
X001811Y006925D01*
X001811Y006808D01*
X001870Y006750D01*
X002103Y006750D01*
X001987Y006615D02*
X001987Y006382D01*
X001811Y006557D01*
X002162Y006557D01*
X002162Y006247D02*
X001811Y006247D01*
X001811Y006013D02*
X002162Y006247D01*
X002162Y006013D02*
X001811Y006013D01*
X001811Y005762D02*
X002162Y005762D01*
X002162Y005645D02*
X002162Y005879D01*
X001928Y005645D02*
X001811Y005762D01*
X002103Y007487D02*
X002162Y007487D01*
X002103Y007487D02*
X001870Y007720D01*
X005837Y003580D02*
X005837Y002780D01*
X025512Y002180D02*
X025512Y001880D01*
X025587Y001805D01*
X025737Y001805D01*
X025812Y001880D01*
X025812Y002030D01*
X025662Y002030D01*
X025812Y002180D02*
X025737Y002255D01*
X025587Y002255D01*
X025512Y002180D01*
X025972Y002255D02*
X025972Y001805D01*
X025972Y001955D02*
X026197Y001955D01*
X026272Y002030D01*
X026272Y002180D01*
X026197Y002255D01*
X025972Y002255D01*
X026122Y001955D02*
X026272Y001805D01*
X026432Y001805D02*
X026733Y001805D01*
X026893Y001805D02*
X027193Y001805D01*
X027353Y001805D02*
X027353Y002255D01*
X027653Y001805D01*
X027653Y002255D01*
X027193Y002255D02*
X026893Y002255D01*
X026893Y001805D01*
X026893Y002030D02*
X027043Y002030D01*
X026733Y002255D02*
X026432Y002255D01*
X026432Y001805D01*
X026432Y002030D02*
X026583Y002030D01*
X026662Y005805D02*
X026662Y006030D01*
X026812Y006180D01*
X026812Y006255D01*
X026972Y006255D02*
X026972Y005805D01*
X027272Y005805D01*
X027432Y005805D02*
X027733Y005805D01*
X027893Y005805D02*
X028193Y005805D01*
X028353Y005880D02*
X028428Y005805D01*
X028578Y005805D01*
X028653Y005880D01*
X028653Y006180D01*
X028578Y006255D01*
X028428Y006255D01*
X028353Y006180D01*
X028353Y005880D01*
X028814Y005805D02*
X028964Y005955D01*
X029114Y005805D01*
X029114Y006255D01*
X028814Y006255D02*
X028814Y005805D01*
X027893Y005805D02*
X027893Y006255D01*
X027432Y006255D02*
X027432Y005805D01*
X027122Y006030D02*
X026972Y006030D01*
X026972Y006255D02*
X027272Y006255D01*
X026662Y006030D02*
X026512Y006180D01*
X026512Y006255D01*
X026762Y009055D02*
X026762Y009505D01*
X026987Y009505D01*
X027062Y009430D01*
X027062Y009280D01*
X026987Y009205D01*
X026762Y009205D01*
X026912Y009205D02*
X027062Y009055D01*
X027222Y009055D02*
X027522Y009055D01*
X027682Y009055D02*
X027908Y009055D01*
X027983Y009130D01*
X027983Y009430D01*
X027908Y009505D01*
X027682Y009505D01*
X027682Y009055D01*
X027372Y009280D02*
X027222Y009280D01*
X027222Y009505D02*
X027222Y009055D01*
X027222Y009505D02*
X027522Y009505D01*
X027408Y012055D02*
X027258Y012055D01*
X027182Y012130D01*
X027182Y012505D01*
X027483Y012505D02*
X027483Y012130D01*
X027408Y012055D01*
X027643Y012055D02*
X027643Y012505D01*
X027943Y012505D01*
X027793Y012280D02*
X027643Y012280D01*
X027643Y012055D02*
X027943Y012055D01*
X027022Y012055D02*
X026722Y012055D01*
X026722Y012505D01*
X026562Y012430D02*
X026562Y012355D01*
X026487Y012280D01*
X026262Y012280D01*
X026487Y012280D02*
X026562Y012205D01*
X026562Y012130D01*
X026487Y012055D01*
X026262Y012055D01*
X026262Y012505D01*
X026487Y012505D01*
X026562Y012430D01*
D16*
X006987Y024180D02*
X006989Y024243D01*
X006995Y024305D01*
X007005Y024367D01*
X007018Y024429D01*
X007036Y024489D01*
X007057Y024548D01*
X007082Y024606D01*
X007111Y024662D01*
X007143Y024716D01*
X007178Y024768D01*
X007216Y024817D01*
X007258Y024865D01*
X007302Y024909D01*
X007350Y024951D01*
X007399Y024989D01*
X007451Y025024D01*
X007505Y025056D01*
X007561Y025085D01*
X007619Y025110D01*
X007678Y025131D01*
X007738Y025149D01*
X007800Y025162D01*
X007862Y025172D01*
X007924Y025178D01*
X007987Y025180D01*
X008050Y025178D01*
X008112Y025172D01*
X008174Y025162D01*
X008236Y025149D01*
X008296Y025131D01*
X008355Y025110D01*
X008413Y025085D01*
X008469Y025056D01*
X008523Y025024D01*
X008575Y024989D01*
X008624Y024951D01*
X008672Y024909D01*
X008716Y024865D01*
X008758Y024817D01*
X008796Y024768D01*
X008831Y024716D01*
X008863Y024662D01*
X008892Y024606D01*
X008917Y024548D01*
X008938Y024489D01*
X008956Y024429D01*
X008969Y024367D01*
X008979Y024305D01*
X008985Y024243D01*
X008987Y024180D01*
X008985Y024117D01*
X008979Y024055D01*
X008969Y023993D01*
X008956Y023931D01*
X008938Y023871D01*
X008917Y023812D01*
X008892Y023754D01*
X008863Y023698D01*
X008831Y023644D01*
X008796Y023592D01*
X008758Y023543D01*
X008716Y023495D01*
X008672Y023451D01*
X008624Y023409D01*
X008575Y023371D01*
X008523Y023336D01*
X008469Y023304D01*
X008413Y023275D01*
X008355Y023250D01*
X008296Y023229D01*
X008236Y023211D01*
X008174Y023198D01*
X008112Y023188D01*
X008050Y023182D01*
X007987Y023180D01*
X007924Y023182D01*
X007862Y023188D01*
X007800Y023198D01*
X007738Y023211D01*
X007678Y023229D01*
X007619Y023250D01*
X007561Y023275D01*
X007505Y023304D01*
X007451Y023336D01*
X007399Y023371D01*
X007350Y023409D01*
X007302Y023451D01*
X007258Y023495D01*
X007216Y023543D01*
X007178Y023592D01*
X007143Y023644D01*
X007111Y023698D01*
X007082Y023754D01*
X007057Y023812D01*
X007036Y023871D01*
X007018Y023931D01*
X007005Y023993D01*
X006995Y024055D01*
X006989Y024117D01*
X006987Y024180D01*
D17*
X003487Y023930D02*
X003487Y023430D01*
X003487Y024430D02*
X003487Y024930D01*
X001987Y024930D02*
X001987Y024430D01*
X001737Y024180D01*
X001987Y023930D01*
X001987Y023430D01*
X001737Y023180D01*
X001237Y023180D01*
X000987Y023430D01*
X000987Y023930D01*
X001237Y024180D01*
X000987Y024430D01*
X000987Y024930D01*
X001237Y025180D01*
X001737Y025180D01*
X001987Y024930D01*
X004987Y020430D02*
X004987Y019930D01*
X002987Y019930D02*
X002987Y019430D01*
X002737Y019180D01*
X002987Y018930D01*
X002987Y018430D01*
X002737Y018180D01*
X002987Y017930D01*
X002987Y017430D01*
X002737Y017180D01*
X002987Y016930D01*
X002987Y016430D01*
X002737Y016180D01*
X002237Y016180D01*
X001987Y016430D01*
X001987Y016930D01*
X002237Y017180D01*
X001987Y017430D01*
X001987Y017930D01*
X002237Y018180D01*
X001987Y018430D01*
X001987Y018930D01*
X002237Y019180D01*
X001987Y019430D01*
X001987Y019930D01*
X002237Y020180D01*
X002737Y020180D01*
X002987Y019930D01*
X007487Y015180D02*
X008087Y015180D01*
X011487Y012180D02*
X011987Y012180D01*
X011737Y009680D02*
X012237Y009680D01*
X012487Y009430D01*
X012487Y008930D01*
X012237Y008680D01*
X012487Y008430D01*
X012487Y007930D01*
X012237Y007680D01*
X012487Y007430D01*
X012487Y006930D01*
X012237Y006680D01*
X011737Y006680D01*
X011487Y006930D01*
X011487Y007430D01*
X011737Y007680D01*
X011487Y007930D01*
X011487Y008430D01*
X011737Y008680D01*
X011487Y008930D01*
X011487Y009430D01*
X011737Y009680D01*
X011032Y008080D02*
X010874Y008080D01*
X010811Y007530D02*
X009162Y007530D01*
X009099Y008080D02*
X008941Y008080D01*
X009874Y008080D02*
X010099Y008080D01*
X011237Y005680D02*
X010987Y005430D01*
X010987Y004930D01*
X011237Y004680D01*
X011737Y004680D01*
X011987Y004930D01*
X012237Y004680D01*
X012737Y004680D01*
X012987Y004930D01*
X013237Y004680D01*
X013737Y004680D01*
X013987Y004930D01*
X014237Y004680D01*
X014737Y004680D01*
X014987Y004930D01*
X015237Y004680D01*
X015737Y004680D01*
X015987Y004930D01*
X016237Y004680D01*
X016737Y004680D01*
X016987Y004930D01*
X016987Y005430D01*
X016737Y005680D01*
X016237Y005680D01*
X015987Y005430D01*
X015737Y005680D01*
X015237Y005680D01*
X014987Y005430D01*
X014737Y005680D01*
X014237Y005680D01*
X013987Y005430D01*
X013737Y005680D01*
X013237Y005680D01*
X012987Y005430D01*
X012737Y005680D01*
X012237Y005680D01*
X011987Y005430D01*
X011737Y005680D01*
X011237Y005680D01*
X014487Y006930D02*
X014737Y006680D01*
X015237Y006680D01*
X015487Y006930D01*
X015487Y007430D01*
X015237Y007680D01*
X015487Y007930D01*
X015487Y008430D01*
X015237Y008680D01*
X015487Y008930D01*
X015487Y009430D01*
X015237Y009680D01*
X014737Y009680D01*
X014487Y009430D01*
X014487Y008930D01*
X014737Y008680D01*
X014487Y008430D01*
X014487Y007930D01*
X014737Y007680D01*
X014487Y007430D01*
X014487Y006930D01*
X016487Y006930D02*
X016737Y006680D01*
X017237Y006680D01*
X017487Y006930D01*
X017487Y007430D01*
X017237Y007680D01*
X017487Y007930D01*
X017487Y008430D01*
X017237Y008680D01*
X016737Y008680D01*
X016487Y008430D01*
X016487Y007930D01*
X016737Y007680D01*
X016487Y007430D01*
X016487Y006930D01*
X017737Y004180D02*
X018237Y004180D01*
X018487Y003930D01*
X018737Y004180D01*
X019237Y004180D01*
X019487Y003930D01*
X019737Y004180D01*
X020237Y004180D01*
X020487Y003930D01*
X020737Y004180D01*
X021237Y004180D01*
X021487Y003930D01*
X021487Y003430D01*
X021237Y003180D01*
X020737Y003180D01*
X020487Y003430D01*
X020237Y003180D01*
X019737Y003180D01*
X019487Y003430D01*
X019237Y003180D01*
X018737Y003180D01*
X018487Y003430D01*
X018237Y003180D01*
X017737Y003180D01*
X017487Y003430D01*
X017487Y003930D01*
X017737Y004180D01*
X017737Y002180D02*
X017487Y001930D01*
X017487Y001430D01*
X017737Y001180D01*
X018237Y001180D01*
X018487Y001430D01*
X018737Y001180D01*
X019237Y001180D01*
X019487Y001430D01*
X019737Y001180D01*
X020237Y001180D01*
X020487Y001430D01*
X020737Y001180D01*
X021237Y001180D01*
X021487Y001430D01*
X021737Y001180D01*
X022237Y001180D01*
X022487Y001430D01*
X022737Y001180D01*
X023237Y001180D01*
X023487Y001430D01*
X023487Y001930D01*
X023237Y002180D01*
X022737Y002180D01*
X022487Y001930D01*
X022237Y002180D01*
X021737Y002180D01*
X021487Y001930D01*
X021237Y002180D01*
X020737Y002180D01*
X020487Y001930D01*
X020237Y002180D01*
X019737Y002180D01*
X019487Y001930D01*
X019237Y002180D01*
X018737Y002180D01*
X018487Y001930D01*
X018237Y002180D01*
X017737Y002180D01*
X015987Y001930D02*
X015987Y001430D01*
X015737Y001180D01*
X015237Y001180D01*
X014987Y001430D01*
X014737Y001180D01*
X014237Y001180D01*
X013987Y001430D01*
X013737Y001180D01*
X013237Y001180D01*
X012987Y001430D01*
X012737Y001180D01*
X012237Y001180D01*
X011987Y001430D01*
X011737Y001180D01*
X011237Y001180D01*
X010987Y001430D01*
X010987Y001930D01*
X011237Y002180D01*
X011737Y002180D01*
X011987Y001930D01*
X012237Y002180D01*
X012737Y002180D01*
X012987Y001930D01*
X013237Y002180D01*
X013737Y002180D01*
X013987Y001930D01*
X014237Y002180D01*
X014737Y002180D01*
X014987Y001930D01*
X015237Y002180D01*
X015737Y002180D01*
X015987Y001930D01*
X009487Y001930D02*
X008987Y001930D01*
X008487Y002430D02*
X008487Y000930D01*
X004487Y000930D01*
X004487Y002430D01*
X008487Y002430D01*
X008487Y000930D02*
X008487Y000680D01*
X004487Y000680D01*
X004487Y000930D01*
X005160Y002708D02*
X005593Y002708D01*
X005160Y002708D02*
X005002Y002865D01*
X005002Y003495D01*
X005160Y003652D01*
X005593Y003652D01*
X006380Y003652D02*
X006971Y003652D01*
X006971Y002708D01*
X006380Y002708D01*
X006987Y004930D02*
X007487Y004930D01*
X005487Y004930D02*
X004987Y004930D01*
X004287Y005230D02*
X004287Y005630D01*
X002753Y004930D02*
X002755Y004992D01*
X002761Y005055D01*
X002771Y005116D01*
X002785Y005177D01*
X002802Y005237D01*
X002823Y005296D01*
X002849Y005353D01*
X002877Y005408D01*
X002909Y005462D01*
X002945Y005513D01*
X002983Y005563D01*
X003025Y005609D01*
X003069Y005653D01*
X003117Y005694D01*
X003166Y005732D01*
X003218Y005766D01*
X003272Y005797D01*
X003328Y005825D01*
X003386Y005849D01*
X003445Y005870D01*
X003505Y005886D01*
X003566Y005899D01*
X003628Y005908D01*
X003690Y005913D01*
X003753Y005914D01*
X003815Y005911D01*
X003877Y005904D01*
X003939Y005893D01*
X003999Y005878D01*
X004059Y005860D01*
X004117Y005838D01*
X004174Y005812D01*
X004229Y005782D01*
X004282Y005749D01*
X004333Y005713D01*
X004381Y005674D01*
X004427Y005631D01*
X004470Y005586D01*
X004510Y005538D01*
X004547Y005488D01*
X004581Y005435D01*
X004612Y005381D01*
X004638Y005325D01*
X004662Y005267D01*
X004681Y005207D01*
X004697Y005147D01*
X004709Y005085D01*
X004717Y005024D01*
X004721Y004961D01*
X004721Y004899D01*
X004717Y004836D01*
X004709Y004775D01*
X004697Y004713D01*
X004681Y004653D01*
X004662Y004593D01*
X004638Y004535D01*
X004612Y004479D01*
X004581Y004425D01*
X004547Y004372D01*
X004510Y004322D01*
X004470Y004274D01*
X004427Y004229D01*
X004381Y004186D01*
X004333Y004147D01*
X004282Y004111D01*
X004229Y004078D01*
X004174Y004048D01*
X004117Y004022D01*
X004059Y004000D01*
X003999Y003982D01*
X003939Y003967D01*
X003877Y003956D01*
X003815Y003949D01*
X003753Y003946D01*
X003690Y003947D01*
X003628Y003952D01*
X003566Y003961D01*
X003505Y003974D01*
X003445Y003990D01*
X003386Y004011D01*
X003328Y004035D01*
X003272Y004063D01*
X003218Y004094D01*
X003166Y004128D01*
X003117Y004166D01*
X003069Y004207D01*
X003025Y004251D01*
X002983Y004297D01*
X002945Y004347D01*
X002909Y004398D01*
X002877Y004452D01*
X002849Y004507D01*
X002823Y004564D01*
X002802Y004623D01*
X002785Y004683D01*
X002771Y004744D01*
X002761Y004805D01*
X002755Y004868D01*
X002753Y004930D01*
X004737Y007180D02*
X005237Y007180D01*
X005487Y007180D02*
X005987Y007180D01*
X006487Y008930D02*
X006487Y009430D01*
X006880Y009708D02*
X007313Y009708D01*
X007471Y009865D01*
X007471Y010495D01*
X007313Y010652D01*
X006880Y010652D01*
X006093Y010652D02*
X005502Y010652D01*
X005502Y009708D01*
X006093Y009708D01*
X004971Y009865D02*
X004971Y010495D01*
X004813Y010652D01*
X004380Y010652D01*
X003593Y010652D02*
X003002Y010652D01*
X003002Y009708D01*
X003593Y009708D01*
X003987Y009430D02*
X003987Y008930D01*
X004380Y009708D02*
X004813Y009708D01*
X004971Y009865D01*
X002487Y009680D02*
X002487Y010180D01*
X002237Y010430D01*
X002487Y010680D01*
X002487Y011180D01*
X002237Y011430D01*
X001737Y011430D01*
X001487Y011180D01*
X001487Y010680D01*
X001737Y010430D01*
X001487Y010180D01*
X001487Y009680D01*
X001737Y009430D01*
X002237Y009430D01*
X002487Y009680D01*
X002737Y013680D02*
X002237Y013680D01*
X012737Y019680D02*
X013237Y019680D01*
X013237Y022180D02*
X013737Y022180D01*
X014737Y023180D02*
X015237Y023180D01*
X015737Y023180D02*
X016237Y023180D01*
X016857Y023192D02*
X018117Y023192D01*
X019237Y023180D02*
X019737Y023180D01*
X020357Y023192D02*
X021617Y023192D01*
X022237Y023180D02*
X022737Y023180D01*
X023237Y022180D02*
X023737Y022180D01*
X021617Y022168D02*
X020357Y022168D01*
X018117Y022168D02*
X016857Y022168D01*
X017487Y018930D02*
X017487Y018430D01*
X017737Y016680D02*
X018237Y016680D01*
X018487Y016430D01*
X018487Y015930D01*
X018237Y015680D01*
X017737Y015680D01*
X017487Y015930D01*
X017237Y015680D01*
X016737Y015680D01*
X016487Y015930D01*
X016237Y015680D01*
X015737Y015680D01*
X015487Y015930D01*
X015487Y016430D01*
X015737Y016680D01*
X016237Y016680D01*
X016487Y016430D01*
X016737Y016680D01*
X017237Y016680D01*
X017487Y016430D01*
X017737Y016680D01*
X024237Y024680D02*
X024737Y024680D01*
X024987Y024930D01*
X024987Y025430D01*
X024737Y025680D01*
X024987Y025930D01*
X024987Y026430D01*
X024737Y026680D01*
X024237Y026680D01*
X023987Y026430D01*
X023987Y025930D01*
X024237Y025680D01*
X023987Y025430D01*
X023987Y024930D01*
X024237Y024680D01*
X023237Y025680D02*
X022737Y025680D01*
X022237Y025680D02*
X021737Y025680D01*
X021117Y025668D02*
X019857Y025668D01*
X019237Y025680D02*
X018737Y025680D01*
X018117Y025668D02*
X016857Y025668D01*
X016237Y025680D02*
X015737Y025680D01*
X014487Y025930D02*
X014487Y026430D01*
X016857Y026692D02*
X018117Y026692D01*
X019857Y026692D02*
X021117Y026692D01*
X028487Y019930D02*
X028737Y020180D01*
X029237Y020180D01*
X029487Y019930D01*
X029487Y019430D01*
X029237Y019180D01*
X029487Y018930D01*
X029487Y018430D01*
X029237Y018180D01*
X028737Y018180D01*
X028487Y018430D01*
X028487Y018930D01*
X028737Y019180D01*
X028487Y019430D01*
X028487Y019930D01*
D18*
X027372Y020967D02*
X027372Y024393D01*
X025601Y024393D01*
X025601Y020967D01*
X027372Y020967D01*
X028292Y012283D02*
X028322Y012235D01*
X028355Y012190D01*
X028391Y012147D01*
X028429Y012106D01*
X028471Y012069D01*
X028515Y012034D01*
X028561Y012003D01*
X028610Y011974D01*
X028660Y011950D01*
X028712Y011929D01*
X028766Y011911D01*
X028820Y011898D01*
X028875Y011888D01*
X028931Y011882D01*
X028987Y011880D01*
X028281Y013056D02*
X028308Y013103D01*
X028338Y013148D01*
X028371Y013191D01*
X028407Y013231D01*
X028446Y013269D01*
X028487Y013304D01*
X028530Y013337D01*
X028575Y013366D01*
X028623Y013392D01*
X028672Y013415D01*
X028722Y013435D01*
X028773Y013451D01*
X028826Y013464D01*
X028879Y013473D01*
X028933Y013478D01*
X028987Y013480D01*
X029598Y012163D02*
X029562Y012124D01*
X029523Y012086D01*
X029483Y012052D01*
X029440Y012020D01*
X029395Y011992D01*
X029348Y011966D01*
X029299Y011943D01*
X029249Y011924D01*
X029198Y011908D01*
X029146Y011896D01*
X029094Y011887D01*
X029040Y011882D01*
X028987Y011880D01*
X029602Y013192D02*
X029566Y013232D01*
X029527Y013270D01*
X029486Y013305D01*
X029443Y013337D01*
X029398Y013367D01*
X029351Y013393D01*
X029302Y013415D01*
X029251Y013435D01*
X029200Y013451D01*
X029148Y013464D01*
X029094Y013473D01*
X029041Y013478D01*
X028987Y013480D01*
X028292Y009283D02*
X028322Y009235D01*
X028355Y009190D01*
X028391Y009147D01*
X028429Y009106D01*
X028471Y009069D01*
X028515Y009034D01*
X028561Y009003D01*
X028610Y008974D01*
X028660Y008950D01*
X028712Y008929D01*
X028766Y008911D01*
X028820Y008898D01*
X028875Y008888D01*
X028931Y008882D01*
X028987Y008880D01*
X028281Y010056D02*
X028308Y010103D01*
X028338Y010148D01*
X028371Y010191D01*
X028407Y010231D01*
X028446Y010269D01*
X028487Y010304D01*
X028530Y010337D01*
X028575Y010366D01*
X028623Y010392D01*
X028672Y010415D01*
X028722Y010435D01*
X028773Y010451D01*
X028826Y010464D01*
X028879Y010473D01*
X028933Y010478D01*
X028987Y010480D01*
X029598Y009163D02*
X029562Y009124D01*
X029523Y009086D01*
X029483Y009052D01*
X029440Y009020D01*
X029395Y008992D01*
X029348Y008966D01*
X029299Y008943D01*
X029249Y008924D01*
X029198Y008908D01*
X029146Y008896D01*
X029094Y008887D01*
X029040Y008882D01*
X028987Y008880D01*
X029602Y010192D02*
X029566Y010232D01*
X029527Y010270D01*
X029486Y010305D01*
X029443Y010337D01*
X029398Y010367D01*
X029351Y010393D01*
X029302Y010415D01*
X029251Y010435D01*
X029200Y010451D01*
X029148Y010464D01*
X029094Y010473D01*
X029041Y010478D01*
X028987Y010480D01*
X028292Y004783D02*
X028322Y004735D01*
X028355Y004690D01*
X028391Y004647D01*
X028429Y004606D01*
X028471Y004569D01*
X028515Y004534D01*
X028561Y004503D01*
X028610Y004474D01*
X028660Y004450D01*
X028712Y004429D01*
X028766Y004411D01*
X028820Y004398D01*
X028875Y004388D01*
X028931Y004382D01*
X028987Y004380D01*
X028281Y005556D02*
X028308Y005603D01*
X028338Y005648D01*
X028371Y005691D01*
X028407Y005731D01*
X028446Y005769D01*
X028487Y005804D01*
X028530Y005837D01*
X028575Y005866D01*
X028623Y005892D01*
X028672Y005915D01*
X028722Y005935D01*
X028773Y005951D01*
X028826Y005964D01*
X028879Y005973D01*
X028933Y005978D01*
X028987Y005980D01*
X029598Y004663D02*
X029562Y004624D01*
X029523Y004586D01*
X029483Y004552D01*
X029440Y004520D01*
X029395Y004492D01*
X029348Y004466D01*
X029299Y004443D01*
X029249Y004424D01*
X029198Y004408D01*
X029146Y004396D01*
X029094Y004387D01*
X029040Y004382D01*
X028987Y004380D01*
X029602Y005692D02*
X029566Y005732D01*
X029527Y005770D01*
X029486Y005805D01*
X029443Y005837D01*
X029398Y005867D01*
X029351Y005893D01*
X029302Y005915D01*
X029251Y005935D01*
X029200Y005951D01*
X029148Y005964D01*
X029094Y005973D01*
X029041Y005978D01*
X028987Y005980D01*
X028292Y001783D02*
X028322Y001735D01*
X028355Y001690D01*
X028391Y001647D01*
X028429Y001606D01*
X028471Y001569D01*
X028515Y001534D01*
X028561Y001503D01*
X028610Y001474D01*
X028660Y001450D01*
X028712Y001429D01*
X028766Y001411D01*
X028820Y001398D01*
X028875Y001388D01*
X028931Y001382D01*
X028987Y001380D01*
X028281Y002556D02*
X028308Y002603D01*
X028338Y002648D01*
X028371Y002691D01*
X028407Y002731D01*
X028446Y002769D01*
X028487Y002804D01*
X028530Y002837D01*
X028575Y002866D01*
X028623Y002892D01*
X028672Y002915D01*
X028722Y002935D01*
X028773Y002951D01*
X028826Y002964D01*
X028879Y002973D01*
X028933Y002978D01*
X028987Y002980D01*
X029598Y001663D02*
X029562Y001624D01*
X029523Y001586D01*
X029483Y001552D01*
X029440Y001520D01*
X029395Y001492D01*
X029348Y001466D01*
X029299Y001443D01*
X029249Y001424D01*
X029198Y001408D01*
X029146Y001396D01*
X029094Y001387D01*
X029040Y001382D01*
X028987Y001380D01*
X029602Y002692D02*
X029566Y002732D01*
X029527Y002770D01*
X029486Y002805D01*
X029443Y002837D01*
X029398Y002867D01*
X029351Y002893D01*
X029302Y002915D01*
X029251Y002935D01*
X029200Y002951D01*
X029148Y002964D01*
X029094Y002973D01*
X029041Y002978D01*
X028987Y002980D01*
X002487Y005430D02*
X001987Y005430D01*
X001987Y005180D01*
X001987Y005430D02*
X001487Y005430D01*
X001487Y005930D01*
X002487Y005930D01*
X002487Y007930D01*
X001987Y007930D01*
X001987Y008180D01*
X001987Y007930D02*
X001487Y007930D01*
X001487Y005930D01*
X002487Y005930D02*
X002487Y005430D01*
D19*
X009887Y006680D02*
X010087Y006680D01*
X010087Y010180D02*
X009887Y010180D01*
X005087Y016180D02*
X004887Y016180D01*
X004887Y017680D02*
X005087Y017680D01*
X005087Y019180D02*
X004887Y019180D01*
X007387Y020180D02*
X007587Y020180D01*
X011237Y022080D02*
X011237Y022280D01*
X012487Y022280D02*
X012487Y022080D01*
X011487Y018780D02*
X011487Y018580D01*
X011487Y016780D02*
X011487Y016580D01*
X015987Y019080D02*
X015987Y019280D01*
X027887Y011180D02*
X028087Y011180D01*
X028087Y008180D02*
X027887Y008180D01*
X027887Y006680D02*
X028087Y006680D01*
X028087Y003680D02*
X027887Y003680D01*
X028487Y021580D02*
X028487Y021780D01*
X028487Y023580D02*
X028487Y023780D01*
D20*
X009663Y009215D02*
X009683Y009148D01*
X009625Y009128D01*
X009569Y009105D01*
X009514Y009078D01*
X009461Y009048D01*
X009409Y009014D01*
X009360Y008978D01*
X009313Y008939D01*
X009269Y008897D01*
X009227Y008852D01*
X009187Y008805D01*
X009151Y008756D01*
X009118Y008705D01*
X009088Y008651D01*
X009061Y008596D01*
X009038Y008540D01*
X009018Y008482D01*
X009002Y008423D01*
X008989Y008363D01*
X008979Y008303D01*
X008974Y008242D01*
X008972Y008181D01*
X008974Y008119D01*
X008979Y008058D01*
X008988Y007998D01*
X009001Y007938D01*
X009018Y007879D01*
X009037Y007821D01*
X009061Y007765D01*
X009088Y007710D01*
X009117Y007656D01*
X009151Y007605D01*
X009187Y007556D01*
X009132Y007513D01*
X009132Y007512D01*
X009093Y007565D01*
X009058Y007620D01*
X009026Y007677D01*
X008997Y007736D01*
X008972Y007796D01*
X008951Y007858D01*
X008933Y007921D01*
X008920Y007985D01*
X008910Y008050D01*
X008904Y008115D01*
X008902Y008181D01*
X008904Y008246D01*
X008910Y008311D01*
X008920Y008376D01*
X008934Y008440D01*
X008951Y008503D01*
X008972Y008565D01*
X008997Y008625D01*
X009026Y008684D01*
X009058Y008741D01*
X009094Y008796D01*
X009132Y008849D01*
X009174Y008899D01*
X009219Y008946D01*
X009267Y008991D01*
X009317Y009033D01*
X009370Y009072D01*
X009424Y009108D01*
X009481Y009140D01*
X009540Y009169D01*
X009601Y009194D01*
X009662Y009215D01*
X009665Y009207D01*
X009604Y009185D01*
X009544Y009160D01*
X009486Y009132D01*
X009429Y009100D01*
X009375Y009065D01*
X009322Y009026D01*
X009273Y008985D01*
X009225Y008940D01*
X009181Y008893D01*
X009140Y008843D01*
X009101Y008791D01*
X009066Y008736D01*
X009034Y008680D01*
X009006Y008621D01*
X008981Y008561D01*
X008960Y008500D01*
X008942Y008438D01*
X008929Y008374D01*
X008919Y008310D01*
X008913Y008245D01*
X008911Y008181D01*
X008913Y008116D01*
X008919Y008051D01*
X008928Y007987D01*
X008942Y007923D01*
X008959Y007861D01*
X008980Y007800D01*
X009005Y007740D01*
X009034Y007681D01*
X009065Y007625D01*
X009100Y007570D01*
X009139Y007518D01*
X009146Y007523D01*
X009108Y007575D01*
X009073Y007629D01*
X009042Y007685D01*
X009013Y007743D01*
X008989Y007803D01*
X008968Y007864D01*
X008951Y007926D01*
X008937Y007989D01*
X008928Y008052D01*
X008922Y008116D01*
X008920Y008181D01*
X008922Y008245D01*
X008928Y008309D01*
X008938Y008372D01*
X008951Y008435D01*
X008968Y008497D01*
X008989Y008558D01*
X009014Y008618D01*
X009042Y008675D01*
X009074Y008732D01*
X009108Y008786D01*
X009147Y008837D01*
X009188Y008887D01*
X009232Y008934D01*
X009279Y008978D01*
X009328Y009019D01*
X009380Y009057D01*
X009434Y009092D01*
X009490Y009124D01*
X009547Y009152D01*
X009607Y009177D01*
X009668Y009198D01*
X009670Y009189D01*
X009610Y009169D01*
X009551Y009144D01*
X009494Y009116D01*
X009438Y009085D01*
X009385Y009050D01*
X009333Y009012D01*
X009285Y008971D01*
X009238Y008927D01*
X009194Y008881D01*
X009154Y008832D01*
X009116Y008780D01*
X009081Y008727D01*
X009050Y008671D01*
X009022Y008614D01*
X008998Y008555D01*
X008977Y008495D01*
X008960Y008433D01*
X008946Y008371D01*
X008937Y008308D01*
X008931Y008244D01*
X008929Y008181D01*
X008931Y008117D01*
X008937Y008053D01*
X008946Y007990D01*
X008959Y007928D01*
X008977Y007866D01*
X008997Y007806D01*
X009022Y007747D01*
X009049Y007690D01*
X009081Y007634D01*
X009115Y007580D01*
X009153Y007529D01*
X009160Y007535D01*
X009123Y007586D01*
X009088Y007639D01*
X009057Y007694D01*
X009030Y007751D01*
X009006Y007809D01*
X008985Y007869D01*
X008968Y007930D01*
X008955Y007992D01*
X008946Y008054D01*
X008940Y008117D01*
X008938Y008181D01*
X008940Y008244D01*
X008946Y008307D01*
X008955Y008369D01*
X008968Y008431D01*
X008985Y008492D01*
X009006Y008552D01*
X009030Y008610D01*
X009058Y008667D01*
X009089Y008722D01*
X009123Y008775D01*
X009161Y008826D01*
X009201Y008875D01*
X009244Y008921D01*
X009290Y008964D01*
X009339Y009005D01*
X009390Y009042D01*
X009443Y009077D01*
X009498Y009108D01*
X009555Y009136D01*
X009613Y009160D01*
X009673Y009181D01*
X009676Y009172D01*
X009616Y009152D01*
X009559Y009128D01*
X009502Y009100D01*
X009448Y009069D01*
X009395Y009035D01*
X009345Y008998D01*
X009296Y008958D01*
X009251Y008915D01*
X009208Y008869D01*
X009168Y008821D01*
X009131Y008770D01*
X009097Y008718D01*
X009066Y008663D01*
X009038Y008607D01*
X009015Y008549D01*
X008994Y008489D01*
X008977Y008429D01*
X008964Y008368D01*
X008955Y008306D01*
X008949Y008243D01*
X008947Y008181D01*
X008949Y008118D01*
X008954Y008055D01*
X008964Y007993D01*
X008977Y007932D01*
X008994Y007872D01*
X009014Y007812D01*
X009038Y007754D01*
X009065Y007698D01*
X009096Y007643D01*
X009130Y007591D01*
X009167Y007540D01*
X009174Y007546D01*
X009137Y007596D01*
X009104Y007648D01*
X009073Y007702D01*
X009046Y007758D01*
X009023Y007816D01*
X009002Y007874D01*
X008986Y007934D01*
X008973Y007995D01*
X008963Y008057D01*
X008958Y008118D01*
X008956Y008181D01*
X008958Y008243D01*
X008964Y008305D01*
X008973Y008366D01*
X008986Y008427D01*
X009003Y008487D01*
X009023Y008545D01*
X009047Y008603D01*
X009074Y008659D01*
X009104Y008713D01*
X009138Y008765D01*
X009175Y008815D01*
X009215Y008863D01*
X009257Y008908D01*
X009302Y008951D01*
X009350Y008991D01*
X009400Y009028D01*
X009452Y009061D01*
X009506Y009092D01*
X009562Y009119D01*
X009620Y009143D01*
X009678Y009164D01*
X009681Y009155D01*
X009623Y009135D01*
X009566Y009111D01*
X009511Y009084D01*
X009457Y009054D01*
X009405Y009020D01*
X009356Y008984D01*
X009308Y008944D01*
X009264Y008902D01*
X009221Y008857D01*
X009182Y008810D01*
X009146Y008760D01*
X009112Y008708D01*
X009082Y008655D01*
X009055Y008599D01*
X009031Y008542D01*
X009011Y008484D01*
X008995Y008425D01*
X008982Y008364D01*
X008972Y008304D01*
X008967Y008242D01*
X008965Y008181D01*
X008967Y008119D01*
X008972Y008058D01*
X008982Y007997D01*
X008994Y007936D01*
X009011Y007877D01*
X009031Y007819D01*
X009054Y007762D01*
X009081Y007706D01*
X009111Y007653D01*
X009145Y007601D01*
X009181Y007551D01*
X010842Y007513D02*
X010787Y007556D01*
X010823Y007605D01*
X010857Y007656D01*
X010886Y007710D01*
X010913Y007765D01*
X010937Y007821D01*
X010956Y007879D01*
X010973Y007938D01*
X010986Y007998D01*
X010995Y008058D01*
X011000Y008119D01*
X011002Y008181D01*
X011000Y008242D01*
X010995Y008303D01*
X010985Y008363D01*
X010972Y008423D01*
X010956Y008482D01*
X010936Y008540D01*
X010913Y008596D01*
X010886Y008651D01*
X010856Y008705D01*
X010823Y008756D01*
X010787Y008805D01*
X010747Y008852D01*
X010706Y008897D01*
X010661Y008939D01*
X010614Y008978D01*
X010565Y009014D01*
X010514Y009048D01*
X010460Y009078D01*
X010405Y009105D01*
X010349Y009128D01*
X010291Y009148D01*
X010311Y009215D01*
X010312Y009215D01*
X010373Y009194D01*
X010434Y009169D01*
X010493Y009140D01*
X010550Y009108D01*
X010604Y009072D01*
X010657Y009033D01*
X010707Y008991D01*
X010755Y008946D01*
X010800Y008899D01*
X010842Y008849D01*
X010880Y008796D01*
X010916Y008741D01*
X010948Y008684D01*
X010977Y008625D01*
X011002Y008565D01*
X011023Y008503D01*
X011040Y008440D01*
X011054Y008376D01*
X011064Y008311D01*
X011070Y008246D01*
X011072Y008180D01*
X011070Y008115D01*
X011064Y008050D01*
X011054Y007985D01*
X011041Y007921D01*
X011023Y007858D01*
X011002Y007796D01*
X010977Y007736D01*
X010948Y007677D01*
X010916Y007620D01*
X010881Y007565D01*
X010842Y007512D01*
X010835Y007518D01*
X010873Y007570D01*
X010909Y007625D01*
X010940Y007681D01*
X010969Y007740D01*
X010994Y007800D01*
X011015Y007861D01*
X011032Y007923D01*
X011046Y007987D01*
X011055Y008051D01*
X011061Y008116D01*
X011063Y008181D01*
X011061Y008245D01*
X011055Y008310D01*
X011045Y008374D01*
X011032Y008438D01*
X011014Y008500D01*
X010993Y008561D01*
X010968Y008621D01*
X010940Y008680D01*
X010908Y008736D01*
X010873Y008791D01*
X010835Y008843D01*
X010793Y008893D01*
X010749Y008940D01*
X010701Y008985D01*
X010652Y009026D01*
X010599Y009065D01*
X010545Y009100D01*
X010488Y009132D01*
X010430Y009160D01*
X010370Y009185D01*
X010309Y009207D01*
X010306Y009198D01*
X010367Y009177D01*
X010427Y009152D01*
X010484Y009124D01*
X010540Y009092D01*
X010594Y009057D01*
X010646Y009019D01*
X010695Y008978D01*
X010742Y008934D01*
X010786Y008887D01*
X010827Y008837D01*
X010866Y008786D01*
X010900Y008732D01*
X010932Y008675D01*
X010960Y008618D01*
X010985Y008558D01*
X011006Y008497D01*
X011023Y008435D01*
X011036Y008372D01*
X011046Y008309D01*
X011052Y008245D01*
X011054Y008181D01*
X011052Y008116D01*
X011046Y008052D01*
X011037Y007989D01*
X011023Y007926D01*
X011006Y007864D01*
X010985Y007803D01*
X010961Y007743D01*
X010932Y007685D01*
X010901Y007629D01*
X010866Y007575D01*
X010828Y007523D01*
X010821Y007529D01*
X010859Y007580D01*
X010893Y007634D01*
X010925Y007690D01*
X010952Y007747D01*
X010977Y007806D01*
X010997Y007866D01*
X011014Y007928D01*
X011028Y007990D01*
X011037Y008053D01*
X011043Y008117D01*
X011045Y008181D01*
X011043Y008244D01*
X011037Y008308D01*
X011028Y008371D01*
X011014Y008433D01*
X010997Y008495D01*
X010976Y008555D01*
X010952Y008614D01*
X010924Y008671D01*
X010893Y008727D01*
X010858Y008780D01*
X010820Y008832D01*
X010780Y008881D01*
X010736Y008927D01*
X010689Y008971D01*
X010641Y009012D01*
X010589Y009050D01*
X010536Y009085D01*
X010480Y009116D01*
X010423Y009144D01*
X010364Y009169D01*
X010304Y009189D01*
X010301Y009181D01*
X010361Y009160D01*
X010419Y009136D01*
X010476Y009108D01*
X010531Y009077D01*
X010584Y009042D01*
X010635Y009005D01*
X010684Y008964D01*
X010730Y008921D01*
X010773Y008875D01*
X010813Y008826D01*
X010851Y008775D01*
X010885Y008722D01*
X010916Y008667D01*
X010944Y008610D01*
X010968Y008552D01*
X010989Y008492D01*
X011006Y008431D01*
X011019Y008369D01*
X011028Y008307D01*
X011034Y008244D01*
X011036Y008181D01*
X011034Y008117D01*
X011028Y008054D01*
X011019Y007992D01*
X011006Y007930D01*
X010989Y007869D01*
X010968Y007809D01*
X010944Y007751D01*
X010917Y007694D01*
X010886Y007639D01*
X010851Y007586D01*
X010814Y007535D01*
X010807Y007540D01*
X010844Y007591D01*
X010878Y007643D01*
X010909Y007698D01*
X010936Y007754D01*
X010960Y007812D01*
X010980Y007872D01*
X010997Y007932D01*
X011010Y007993D01*
X011020Y008055D01*
X011025Y008118D01*
X011027Y008181D01*
X011025Y008243D01*
X011019Y008306D01*
X011010Y008368D01*
X010997Y008429D01*
X010980Y008489D01*
X010959Y008549D01*
X010936Y008607D01*
X010908Y008663D01*
X010877Y008718D01*
X010843Y008770D01*
X010806Y008821D01*
X010766Y008869D01*
X010723Y008915D01*
X010678Y008958D01*
X010629Y008998D01*
X010579Y009035D01*
X010526Y009069D01*
X010472Y009100D01*
X010416Y009128D01*
X010358Y009152D01*
X010298Y009172D01*
X010296Y009164D01*
X010354Y009143D01*
X010412Y009119D01*
X010468Y009092D01*
X010522Y009061D01*
X010574Y009028D01*
X010624Y008991D01*
X010672Y008951D01*
X010717Y008908D01*
X010759Y008863D01*
X010799Y008815D01*
X010836Y008765D01*
X010870Y008713D01*
X010900Y008659D01*
X010927Y008603D01*
X010951Y008545D01*
X010971Y008487D01*
X010988Y008427D01*
X011001Y008366D01*
X011010Y008305D01*
X011016Y008243D01*
X011018Y008181D01*
X011016Y008118D01*
X011011Y008057D01*
X011001Y007995D01*
X010988Y007934D01*
X010972Y007874D01*
X010951Y007816D01*
X010928Y007758D01*
X010901Y007702D01*
X010870Y007648D01*
X010837Y007596D01*
X010800Y007546D01*
X010793Y007551D01*
X010829Y007601D01*
X010862Y007653D01*
X010893Y007706D01*
X010920Y007762D01*
X010943Y007819D01*
X010963Y007877D01*
X010980Y007936D01*
X010992Y007997D01*
X011002Y008058D01*
X011007Y008119D01*
X011009Y008181D01*
X011007Y008242D01*
X011002Y008303D01*
X010992Y008364D01*
X010979Y008425D01*
X010963Y008484D01*
X010943Y008542D01*
X010919Y008599D01*
X010892Y008655D01*
X010862Y008708D01*
X010829Y008760D01*
X010792Y008810D01*
X010753Y008857D01*
X010710Y008902D01*
X010666Y008944D01*
X010618Y008984D01*
X010569Y009020D01*
X010517Y009054D01*
X010463Y009084D01*
X010408Y009111D01*
X010351Y009135D01*
X010293Y009155D01*
M02*
