G75*
G70*
%OFA0B0*%
%FSLAX24Y24*%
%IPPOS*%
%LPD*%
%AMOC8*
5,1,8,0,0,1.08239X$1,22.5*
%
%ADD10C,0.1310*%
%ADD11C,0.0540*%
%ADD12C,0.0710*%
%ADD13OC8,0.0540*%
%ADD14C,0.0800*%
%ADD15R,0.0800X0.0800*%
%ADD16C,0.0840*%
%ADD17C,0.0440*%
%ADD18OC8,0.0690*%
%ADD19R,0.0710X0.0710*%
%ADD20R,0.2060X0.1060*%
%ADD21R,0.1060X0.2060*%
%ADD22C,0.0436*%
%ADD23R,0.0436X0.0436*%
D10*
X002487Y002180D03*
X028487Y026180D03*
D11*
X027487Y019920D02*
X027487Y019440D01*
X026487Y019440D02*
X026487Y019920D01*
X025487Y019920D02*
X025487Y019440D01*
X024487Y019440D02*
X024487Y019920D01*
X023487Y019920D02*
X023487Y019440D01*
X022487Y019440D02*
X022487Y019920D01*
X021487Y019920D02*
X021487Y019440D01*
X021487Y016920D02*
X021487Y016440D01*
X022487Y016440D02*
X022487Y016920D01*
X023487Y016920D02*
X023487Y016440D01*
X024487Y016440D02*
X024487Y016920D01*
X025487Y016920D02*
X025487Y016440D01*
X026487Y016440D02*
X026487Y016920D01*
X027487Y016920D02*
X027487Y016440D01*
X021985Y014420D02*
X021985Y013940D01*
X020985Y013940D02*
X020985Y014420D01*
X019985Y014420D02*
X019985Y013940D01*
X018985Y013940D02*
X018985Y014420D01*
X017985Y014420D02*
X017985Y013940D01*
X016985Y013940D02*
X016985Y014420D01*
X015985Y014420D02*
X015985Y013940D01*
X014985Y013940D02*
X014985Y014420D01*
X013985Y014420D02*
X013985Y013940D01*
X012985Y013940D02*
X012985Y014420D01*
X012985Y011420D02*
X012985Y010940D01*
X013985Y010940D02*
X013985Y011420D01*
X014985Y011420D02*
X014985Y010940D01*
X015985Y010940D02*
X015985Y011420D01*
X016985Y011420D02*
X016985Y010940D01*
X017985Y010940D02*
X017985Y011420D01*
X018985Y011420D02*
X018985Y010940D01*
X019985Y010940D02*
X019985Y011420D01*
X020985Y011420D02*
X020985Y010940D01*
X021985Y010940D02*
X021985Y011420D01*
X022747Y009680D02*
X023227Y009680D01*
X023227Y008680D02*
X022747Y008680D01*
X022747Y007680D02*
X023227Y007680D01*
X023227Y006680D02*
X022747Y006680D01*
X022747Y005680D02*
X023227Y005680D01*
X023227Y004680D02*
X022747Y004680D01*
X022747Y003680D02*
X023227Y003680D01*
X025747Y003680D02*
X026227Y003680D01*
X026227Y004680D02*
X025747Y004680D01*
X025747Y005680D02*
X026227Y005680D01*
X026227Y006680D02*
X025747Y006680D01*
X025747Y007680D02*
X026227Y007680D01*
X026227Y008680D02*
X025747Y008680D01*
X025747Y009680D02*
X026227Y009680D01*
D12*
X017987Y018680D03*
X016987Y018680D03*
X013487Y021680D03*
X013487Y022680D03*
X014987Y022680D03*
X014987Y023680D03*
X015987Y023680D03*
X015987Y022680D03*
X015987Y025180D03*
X015987Y026180D03*
X014987Y026180D03*
X013987Y026180D03*
X018987Y026180D03*
X018987Y025180D03*
X019487Y023680D03*
X019487Y022680D03*
X021987Y025180D03*
X022987Y025180D03*
X022987Y026180D03*
X021987Y026180D03*
X022487Y023680D03*
X022487Y022680D03*
X023487Y022680D03*
X023487Y021680D03*
X012987Y020180D03*
X012987Y019180D03*
X011737Y012680D03*
X011737Y011680D03*
X006987Y009180D03*
X005987Y009180D03*
X004487Y009180D03*
X003487Y009180D03*
X004987Y007680D03*
X005737Y007680D03*
X005737Y006680D03*
X004987Y006680D03*
X005237Y005430D03*
X005237Y004430D03*
X003737Y005430D03*
X007237Y005430D03*
X007237Y004430D03*
X009237Y002430D03*
X009237Y001430D03*
X002487Y012696D03*
X002487Y014664D03*
X004487Y020180D03*
X005487Y020180D03*
X003987Y023680D03*
X003987Y024680D03*
X002987Y024680D03*
X002987Y023680D03*
D13*
X006987Y020180D03*
X007987Y020180D03*
X005487Y019180D03*
X004487Y019180D03*
X004487Y017680D03*
X005487Y017680D03*
X005487Y016180D03*
X004487Y016180D03*
X009487Y010180D03*
X010487Y010180D03*
X007737Y007180D03*
X006987Y006680D03*
X006987Y007680D03*
X009487Y006680D03*
X010487Y006680D03*
X004237Y007180D03*
X003487Y006680D03*
X003487Y007680D03*
X011487Y016180D03*
X011487Y017180D03*
X011487Y018180D03*
X011487Y019180D03*
X011237Y021680D03*
X011237Y022680D03*
X012487Y022680D03*
X012487Y021680D03*
X015987Y019680D03*
X015987Y018680D03*
X027487Y011180D03*
X028487Y011180D03*
X028487Y012680D03*
X029487Y012680D03*
X029487Y009680D03*
X028487Y009680D03*
X028487Y008180D03*
X027487Y008180D03*
X027487Y006680D03*
X028487Y006680D03*
X028487Y005180D03*
X029487Y005180D03*
X028487Y003680D03*
X027487Y003680D03*
X028487Y002180D03*
X029487Y002180D03*
X028487Y021180D03*
X028487Y022180D03*
X028487Y023180D03*
X028487Y024180D03*
D14*
X024487Y025180D03*
X024487Y026180D03*
X028987Y019680D03*
X028987Y018680D03*
X017987Y016180D03*
X016987Y016180D03*
X015987Y016180D03*
X014987Y009180D03*
X014987Y008180D03*
X014987Y007180D03*
X016987Y007180D03*
X016987Y008180D03*
X016487Y005180D03*
X015487Y005180D03*
X014487Y005180D03*
X013487Y005180D03*
X012487Y005180D03*
X011487Y005180D03*
X011987Y007180D03*
X011987Y008180D03*
X011987Y009180D03*
X010487Y008180D03*
X009987Y008930D03*
X009487Y008180D03*
X011487Y001680D03*
X012487Y001680D03*
X013487Y001680D03*
X014487Y001680D03*
X015487Y001680D03*
X017987Y001680D03*
X018987Y001680D03*
X019987Y001680D03*
X020987Y001680D03*
X021987Y001680D03*
X022987Y001680D03*
X019987Y003680D03*
X018987Y003680D03*
X017987Y003680D03*
X006487Y001680D03*
X005487Y001680D03*
X001987Y009930D03*
X001987Y010930D03*
X002487Y016680D03*
X002487Y017680D03*
X002487Y018680D03*
X001487Y023680D03*
X001487Y024680D03*
D15*
X002487Y019680D03*
X020987Y003680D03*
X007487Y001680D03*
D16*
X001987Y004680D03*
X001987Y008680D03*
D17*
X026487Y021680D03*
X026487Y022680D03*
X026487Y023680D03*
D18*
X009987Y018680D03*
X009987Y017680D03*
X009987Y016680D03*
X009987Y015680D03*
X006987Y015680D03*
X006987Y016680D03*
X006987Y017680D03*
X006987Y018680D03*
D19*
X003737Y004430D03*
D20*
X005987Y024180D03*
X009987Y024180D03*
D21*
X007987Y022180D03*
X007987Y026180D03*
D22*
X007987Y026180D03*
X007987Y025680D03*
X007987Y026680D03*
X007987Y022680D03*
X007987Y022180D03*
X007987Y021680D03*
X003487Y015180D03*
X004987Y013680D03*
X013487Y012180D03*
X014987Y012180D03*
X018487Y009180D03*
X018987Y008680D03*
X019487Y009180D03*
X021487Y009180D03*
X024987Y011680D03*
X023987Y013180D03*
X024987Y015180D03*
X021987Y004680D03*
X020487Y004680D03*
X015487Y003180D03*
D23*
X007987Y005180D03*
X004487Y011680D03*
X009987Y013180D03*
M02*
